<svg width="28" height="29" viewBox="0 0 28 29" fill="none" xmlns="http://www.w3.org/2000/svg">
<path d="M23.9201 23.4723L23.8707 23.2914L23.8295 23.1404L23.8258 23.1271L23.8215 23.114C23.7175 22.8021 23.5577 22.4939 23.3483 22.1938C25.1103 20.0846 26.1668 17.3623 26.1668 14.3779C26.1668 7.62261 20.7402 2.21127 13.9863 2.21127C7.23018 2.21127 1.84707 7.62492 1.84707 14.3779C1.84707 17.3591 2.89873 20.079 4.6546 22.1875C4.4456 22.4842 4.28532 22.7887 4.17992 23.0964L4.17304 23.1165L4.16789 23.1371L4.12671 23.3018L4.08423 23.4717C1.86634 21.0595 0.5 17.8567 0.5 14.3779C0.5 6.99494 6.61765 0.87793 13.9863 0.87793C21.3697 0.87793 27.5 6.99589 27.5 14.3779C27.5 17.8571 26.1365 21.0601 23.9201 23.4723ZM14 27.8779C10.9055 27.8779 8.02939 26.7968 5.73387 24.9968C6.75312 25.7095 7.89942 26.2943 9.04754 26.7406C10.7934 27.4193 12.585 27.7937 14 27.7937C15.4213 27.7937 17.206 27.4229 18.9474 26.7457C20.1219 26.289 21.2944 25.686 22.3352 24.9469C20.0302 26.7768 17.1287 27.8779 14 27.8779ZM5.34883 22.9523C7.54575 25.1743 10.601 26.5447 14 26.5447C17.3957 26.5447 20.4521 25.1769 22.6522 22.9583C22.7167 23.0665 22.7711 23.1733 22.8153 23.2782C21.6528 24.3481 20.1382 25.2097 18.585 25.8137C16.9293 26.4576 15.2689 26.7937 14 26.7937C12.7385 26.7937 11.0714 26.4544 9.40985 25.8085C7.85025 25.2023 6.33234 24.3401 5.18153 23.2761C5.22679 23.17 5.28259 23.0619 5.34883 22.9523ZM14 25.5447C10.8399 25.5447 8.00437 24.2558 5.98321 22.1708C6.45499 21.7093 7.10102 21.2521 7.91676 20.8481C9.46406 20.0818 11.5525 19.5446 14 19.5446C16.4546 19.5446 18.5463 20.0819 20.0932 20.8496C20.9077 21.2538 21.5517 21.7114 22.0212 22.1737C19.9968 24.2569 17.159 25.5447 14 25.5447ZM9.79217 11.5344V11.5343C9.77964 9.00298 11.6764 6.97205 14 6.97205C16.3215 6.97205 18.2079 9.00118 18.2079 11.5368C18.2079 14.2597 16.3284 16.2354 14.0052 16.2113C11.6796 16.1871 9.8048 14.2503 9.79217 11.5344Z" fill="white" stroke="white"/>
</svg>
