<?xml version="1.0" encoding="UTF-8" standalone="no"?>
<svg
   height="24"
   viewBox="0 -960 960 960"
   width="24"
   version="1.1"
   id="svg1"
   sodipodi:docname="download.svg"
   inkscape:version="1.3.2 (091e20e, 2023-11-25, custom)"
   xmlns:inkscape="http://www.inkscape.org/namespaces/inkscape"
   xmlns:sodipodi="http://sodipodi.sourceforge.net/DTD/sodipodi-0.dtd"
   xmlns="http://www.w3.org/2000/svg"
   xmlns:svg="http://www.w3.org/2000/svg">
  <defs
     id="defs1" />
  <sodipodi:namedview
     id="namedview1"
     pagecolor="#505050"
     bordercolor="#eeeeee"
     borderopacity="1"
     inkscape:showpageshadow="0"
     inkscape:pageopacity="0"
     inkscape:pagecheckerboard="0"
     inkscape:deskcolor="#505050"
     showgrid="true"
     inkscape:zoom="25.354167"
     inkscape:cx="14.041085"
     inkscape:cy="14.652424"
     inkscape:window-width="2400"
     inkscape:window-height="1494"
     inkscape:window-x="-11"
     inkscape:window-y="-11"
     inkscape:window-maximized="1"
     inkscape:current-layer="svg1">
    <inkscape:grid
       id="grid1"
       units="px"
       originx="0"
       originy="0"
       spacingx="40"
       spacingy="40"
       empcolor="#0099e5"
       empopacity="0.30196078"
       color="#0099e5"
       opacity="0.14901961"
       empspacing="5"
       dotted="false"
       gridanglex="30"
       gridanglez="30"
       visible="true" />
  </sodipodi:namedview>
  <path
     d="m 240,-80 c -22,0 -40.83333,-7.833333 -56.5,-23.5 C 167.83333,-119.16667 160,-138 160,-160 v -640 c 0,-22 7.83333,-40.83333 23.5,-56.5 15.66667,-15.66667 34.5,-23.5 56.5,-23.5 h 320 l 240,240 v 480 c 0,22 -7.83333,40.83333 -23.5,56.5 C 760.83333,-87.833333 742,-80 720,-80 Z M 520,-600 V -800 H 240 v 640 H 720 V -600 Z M 240,-800 v 200 -200 640 z"
     id="path1"
     style="display:inline;fill:#ffffff"
     sodipodi:nodetypes="ssssssccsssscccccccccccc" />
  <path
     d="m 440,-520 h 80 v 167 l 64,-64 56,57 -160,160 -160,-160 57,-56 63,63 z"
     id="path2"
     sodipodi:nodetypes="cccccccccc"
     style="display:inline;fill:#ffffff" />
</svg>
