<?xml version="1.0" encoding="UTF-8" standalone="no"?>
<svg
   height="24"
   viewBox="0 -960 960 960"
   width="24"
   version="1.1"
   id="svg1"
   xmlns="http://www.w3.org/2000/svg">
  <defs
     id="defs1" />
  <path
     d="m 240,-80 c -22,0 -40.83333,-7.833333 -56.5,-23.5 C 167.83333,-119.16667 160,-138 160,-160 v -640 c 0,-22 7.83333,-40.83333 23.5,-56.5 15.66667,-15.66667 34.5,-23.5 56.5,-23.5 h 320 l 240,240 v 480 c 0,22 -7.83333,40.83333 -23.5,56.5 C 760.83333,-87.833333 742,-80 720,-80 Z M 520,-600 V -800 H 240 v 640 H 720 V -600 Z M 240,-800 v 200 -200 640 z"
     id="path1"
     style="display:inline;fill:#ffffff" />
  <path
     d="m 440,-520 h 80 v 167 l 64,-64 56,57 -160,160 -160,-160 57,-56 63,63 z"
     id="path2"
     style="display:inline;fill:#ffffff" />
</svg>