<svg width="29" height="28" viewBox="0 0 29 28" fill="none" xmlns="http://www.w3.org/2000/svg">
<path d="M6.0098 12.2439L7.7651 10.4259L11.9553 14.6161L12.8088 15.4696V14.2625V0.5H15.3088V14.2625V15.4696L16.1624 14.6161L20.3526 10.4259L22.1079 12.2439L15.1195 19.2322C14.5337 19.818 13.584 19.818 12.9982 19.2322L6.0098 12.2439ZM25.0588 24.5V19.75H27.5588V24.5C27.5588 25.3288 27.2696 26.0259 26.6772 26.6183C26.0848 27.2107 25.3877 27.5 24.5588 27.5H3.55884C2.73 27.5 2.03291 27.2107 1.44052 26.6183C0.84812 26.0259 0.558838 25.3288 0.558838 24.5V19.75H3.05884V24.5V25H3.55884H24.5588H25.0588V24.5Z" fill="white" stroke="white"/>
</svg>
