<svg width="32" height="28" viewBox="0 0 32 28" fill="none" xmlns="http://www.w3.org/2000/svg">
<path d="M31.4948 13.9138L31.4916 13.9418V13.9699C31.4916 14.6624 30.8978 15.2251 30.2134 15.2251H28.4351H27.9329L27.9351 15.7273L27.974 24.4843C27.974 24.4846 27.974 24.4849 27.974 24.4852C27.974 24.6079 27.9647 24.7355 27.9494 24.8711L27.9462 24.899V24.9272V25.8129C27.9462 26.7375 27.1831 27.5 26.2234 27.5H25.3343C25.2695 27.5 25.2307 27.4997 25.1955 27.4965L25.1557 27.493L25.1159 27.4958C25.0587 27.4998 24.9987 27.5 24.9184 27.5C24.9181 27.5 24.9178 27.5 24.9176 27.5L23.113 27.4945H23.1115H21.7779C20.8182 27.4945 20.0551 26.7321 20.0551 25.8075V24.4952V20.9959C20.0551 19.7444 19.0289 18.7462 17.7768 18.7462H14.2203C12.9683 18.7462 11.9421 19.7444 11.9421 20.9959V24.4952V25.8075C11.9421 26.7321 11.1789 27.4945 10.2193 27.4945H8.88563H7.11295C7.04872 27.4945 6.98173 27.4903 6.89562 27.4847L6.8588 27.4823L6.82202 27.4853C6.75187 27.491 6.70562 27.4945 6.66283 27.4945H5.77372C4.81409 27.4945 4.05092 26.7321 4.05092 25.8075V19.6837C4.05092 19.6283 4.05149 19.6028 4.05332 19.5867L4.05648 19.5587V19.5306V15.7196V15.2196H3.55648H1.77824C1.04748 15.2196 0.5 14.6714 0.5 13.9645C0.5 13.6074 0.612545 13.3029 0.894984 13.0199L15.1238 0.816952L15.1368 0.805817L15.1489 0.79382C15.3988 0.547994 15.6809 0.5 16.0208 0.5C16.3276 0.5 16.6464 0.5878 16.8662 0.7657L31.0533 13.0359L31.0541 13.0366C31.4165 13.3486 31.5262 13.6355 31.4948 13.9138Z" fill="white" stroke="white"/>
</svg>
