<?xml version="1.0" encoding="UTF-8" standalone="no"?>
<svg
   width="24"
   height="24"
   viewBox="0 0 24 24"
   fill="none"
   version="1.1"
   id="svg5"
   xmlns="http://www.w3.org/2000/svg">
  <defs
     id="defs5" />
  <path
     d="m 6.3750745,7.9901246 v 1.219228 H 2.0014731 V 2 h 1.3388605 v 5.9901246 z"
     fill="#ffffff"
     id="path1"
     style="fill:#49d633;stroke-width:0.339875" />
  <path
     d="M 8.9951976,9.2093526 H 7.6563366 V 2 h 1.338861 z"
     fill="#ffffff"
     id="path2"
     style="fill:#49d633;stroke-width:0.339875" />
  <path
     d="M 16.399274,2 13.989323,9.2093526 H 12.61699 L 10.195884,2 H 11.66863 L 12.81782,5.625882 13.342208,7.4918312 13.900065,5.61528 15.038098,2 Z"
     fill="#ffffff"
     id="path3"
     style="fill:#49d633;stroke-width:0.339875" />
  <path
     d="m 22,7.9901246 v 1.219228 H 17.604073 V 2 h 4.284355 v 1.2192282 h -2.945493 v 1.7281235 h 2.610778 v 1.2192315 h -2.610778 v 1.8235414 z"
     fill="#ffffff"
     id="path4"
     style="fill:#49d633;stroke-width:0.339875" />
  <path
     d="M 16.544392,11.129901 H 7.4541311 C 4.4452739,11.129901 2,13.566603 2,16.564952 2,19.563299 4.4452739,22 7.4541311,22 h 9.0902609 c 3.00885,0 5.454134,-2.436701 5.454134,-5.435048 0,-2.998349 -2.445284,-5.435051 -5.454134,-5.435051 z m 0,9.058428 H 7.4541311 c -2.0089236,0 -3.6360826,-1.62148 -3.6360826,-3.623377 0,-2.001899 1.627159,-3.623379 3.6360826,-3.623379 h 9.0902609 c 2.008923,0 3.63609,1.62148 3.63609,3.623379 0,2.001897 -1.627167,3.623377 -3.63609,3.623377 z"
     fill="#49d633"
     id="path5"
     style="stroke-width:0.348293"
       />
  <path
     d="m 16.399291,13.847426 c -1.508996,0 -2.727085,1.213816 -2.727085,2.717525 0,1.503707 1.218088,2.717525 2.727085,2.717525 1.508961,0 2.727049,-1.213818 2.727049,-2.717525 0,-1.503709 -1.218088,-2.717525 -2.727049,-2.717525 z"
     style="fill:#49d633;stroke-width:0.348293"
     id="path1-0" />
</svg>
