<?xml version="1.0" encoding="UTF-8" standalone="no"?>
<svg
   width="24"
   height="24"
   viewBox="0 0 24 24"
   fill="none"
   version="1.1"
   id="svg5"
   xmlns="http://www.w3.org/2000/svg">
  <defs
     id="defs5" />
  <path
     d="m 6.3750745,7.9901244 v 1.219228 H 2.0014731 V 2 h 1.3388605 v 5.9901244 z"
     fill="#ffffff"
     id="path1"
     style="stroke-width:0.339876" />
  <path
     d="M 8.995198,9.2093524 H 7.6563366 V 2 H 8.995198 Z"
     fill="#ffffff"
     id="path2"
     style="stroke-width:0.339876" />
  <path
     d="m 16.399273,2 -2.40995,7.2093524 H 12.61699 L 10.195884,2 H 11.66863 L 12.81782,5.6258819 13.342208,7.4918311 13.900066,5.6152799 15.038098,2 Z"
     fill="#ffffff"
     id="path3"
     style="stroke-width:0.339876" />
  <path
     d="m 22,7.9901244 v 1.219228 H 17.604073 V 2 h 4.284355 v 1.2192282 h -2.945494 v 1.7281234 h 2.610779 v 1.2192315 h -2.610779 v 1.8235413 z"
     fill="#ffffff"
     id="path4"
     style="stroke-width:0.339876" />
  <path
     d="M 16.544392,11.1299 H 7.4541311 C 4.4452739,11.1299 2,13.566603 2,16.564952 2,19.563299 4.4452739,22 7.4541311,22 h 9.0902609 c 3.00885,0 5.454135,-2.436701 5.454135,-5.435048 0,-2.998349 -2.445285,-5.435052 -5.454135,-5.435052 z m 0,9.058428 H 7.4541311 c -2.0089236,0 -3.6360826,-1.621478 -3.6360826,-3.623376 0,-2.0019 1.627159,-3.623379 3.6360826,-3.623379 h 9.0902609 c 2.008924,0 3.63609,1.621479 3.63609,3.623379 0,2.001898 -1.627166,3.623376 -3.63609,3.623376 z"
     fill="#49d633"
     id="path5"
     style="fill:#ffffff;stroke-width:0.348294" />
  <path
     d="m 7.6563541,13.847426 c -1.5089963,0 -2.7270841,1.213816 -2.7270841,2.717525 0,1.503707 1.218087,2.717524 2.7270841,2.717524 1.5089606,0 2.7270489,-1.213817 2.7270489,-2.717524 0,-1.503709 -1.2180883,-2.717525 -2.7270489,-2.717525 z"
     style="fill:#ffffff;stroke-width:0.348294"
     id="path1-0" />
</svg>