<svg width="29" height="29" viewBox="0 0 29 29" fill="none" xmlns="http://www.w3.org/2000/svg">
<path fill-rule="evenodd" clip-rule="evenodd" d="M14.1086 0.131836C15.2132 0.131836 16.1086 1.02727 16.1086 2.13184V12.1318H26.1086C27.2132 12.1318 28.1086 13.0273 28.1086 14.1318C28.1086 15.2364 27.2132 16.1318 26.1086 16.1318H16.1086V26.1318C16.1086 27.2364 15.2132 28.1318 14.1086 28.1318C13.0041 28.1318 12.1086 27.2364 12.1086 26.1318V16.1318H2.10864C1.00407 16.1318 0.108643 15.2364 0.108643 14.1318C0.108643 13.0273 1.00407 12.1318 2.10864 12.1318H12.1086V2.13184C12.1086 1.02727 13.0041 0.131836 14.1086 0.131836Z" fill="white"/>
</svg>
