<svg width="29" height="29" viewBox="0 0 29 29" fill="none" xmlns="http://www.w3.org/2000/svg">
<path d="M16.8529 26.9182L16.8528 26.9182L16.8508 26.9278C16.7981 27.1718 16.6879 27.3416 16.5536 27.4508C16.4195 27.5598 16.2328 27.6318 15.9864 27.6318H13.5214C13.2754 27.6318 13.0879 27.56 12.9512 27.4497C12.8138 27.3388 12.6998 27.1662 12.6416 26.9187L12.6415 26.9182L11.9448 23.9708L11.8807 23.6996L11.6163 23.6115C11.1131 23.4438 10.6357 23.2502 10.1974 23.044L9.95293 22.929L9.72272 23.0704L7.15048 24.6513L7.15047 24.6513L7.1464 24.6538C6.75495 24.8996 6.34447 24.8564 6.0376 24.5496C6.03759 24.5496 6.03758 24.5496 6.03757 24.5496L4.32278 22.8348C4.00567 22.5177 3.96017 22.0896 4.21852 21.7193L4.22704 21.7071L4.23482 21.6944L5.80228 19.1355L5.94132 18.9086L5.83064 18.6665C5.62027 18.2063 5.4295 17.7467 5.29141 17.2948L5.20776 17.021L4.92934 16.9546L1.95518 16.2445L1.95521 16.2444L1.94449 16.2421C1.70174 16.1897 1.53666 16.0806 1.43098 15.9483C1.32488 15.8154 1.25391 15.6281 1.25391 15.3777V12.9528C1.25391 12.7114 1.32366 12.5275 1.42987 12.3955C1.53584 12.2637 1.70159 12.1544 1.94449 12.102L1.94452 12.1021L1.95618 12.0993L4.90354 11.3892L5.17779 11.3231L5.26305 11.0543C5.41389 10.5785 5.59642 10.1446 5.76138 9.7524C5.77785 9.71325 5.79415 9.67451 5.81022 9.63619L5.90841 9.40204L5.77728 9.18461L4.20982 6.58557L4.20328 6.57472L4.19619 6.56421C4.05794 6.35923 4.01325 6.16408 4.02843 5.99623C4.04347 5.82982 4.12051 5.6533 4.2911 5.48732L4.29112 5.48733L4.2946 5.48387L6.03167 3.76018C6.21157 3.59133 6.38792 3.51451 6.55098 3.49543C6.71387 3.47638 6.90348 3.51031 7.11756 3.63026L9.7081 5.23265L9.9518 5.3834L10.2051 5.24933C10.6278 5.02553 11.109 4.8346 11.6163 4.6655L11.881 4.57728L11.9449 4.30568L12.6416 1.34493C12.6416 1.34493 12.6416 1.34492 12.6416 1.34492C12.6998 1.09745 12.8138 0.924888 12.9512 0.813974C13.0879 0.703682 13.2754 0.631836 13.5214 0.631836H15.9864C16.2328 0.631836 16.4195 0.70387 16.5536 0.812869C16.6879 0.9221 16.7981 1.09181 16.8508 1.33581L16.8507 1.33583L16.8526 1.34395L17.5493 4.33151L17.6139 4.60859L17.8851 4.69458C18.4124 4.86176 18.8789 5.05182 19.2752 5.26238L19.5285 5.39691L19.7725 5.24628L22.39 3.63038C22.6022 3.51149 22.7872 3.48022 22.9466 3.50003C23.1073 3.52 23.2832 3.59716 23.4662 3.76349L25.2145 5.48522L25.2167 5.48732C25.3848 5.65095 25.4599 5.82585 25.4741 5.99346C25.4886 6.16413 25.4426 6.36292 25.3072 6.57096L25.303 6.57739L25.299 6.58394L23.7181 9.18299L23.581 9.40831L23.6896 9.64867C23.875 10.0591 24.0796 10.5335 24.2447 11.0542L24.3299 11.3231L24.6042 11.3892L27.5517 12.0993L27.5516 12.0994L27.5633 12.102C27.8062 12.1543 27.972 12.2637 28.0779 12.3955C28.1841 12.5275 28.2539 12.7114 28.2539 12.9528V15.3777C28.2539 15.628 28.1829 15.8154 28.0768 15.9483C27.9711 16.0806 27.806 16.1897 27.5633 16.2421L27.5633 16.242L27.5527 16.2445L24.5784 16.9546L24.3 17.021L24.2164 17.2948C24.0786 17.7458 23.8886 18.2034 23.6687 18.6559L23.5486 18.9032L23.6931 19.1372L25.274 21.696L25.2792 21.7045L25.2848 21.7128C25.541 22.0926 25.4961 22.523 25.1858 22.834C25.1856 22.8342 25.1853 22.8345 25.185 22.8348L23.4582 24.5482L23.4569 24.5496C23.1493 24.857 22.7521 24.8991 22.3614 24.6538L22.3615 24.6538L22.3564 24.6507L19.7706 23.0698L19.5375 22.9273L19.2917 23.0465C18.8732 23.2494 18.3849 23.4426 17.8781 23.6115L17.6137 23.6996L17.5496 23.9708L16.8529 26.9182ZM9.52472 14.1185C9.52472 16.9918 11.8769 19.361 14.7539 19.361C17.6309 19.361 19.9831 16.9918 19.9831 14.1185C19.9831 11.2557 17.6281 8.90265 14.7539 8.90265C11.8796 8.90265 9.52472 11.2557 9.52472 14.1185Z" fill="white" stroke="white"/>
</svg>
