<svg width="29" height="28" viewBox="0 0 29 28" fill="none" xmlns="http://www.w3.org/2000/svg">
<path d="M16.599 26.7863L16.5989 26.7863L16.5969 26.796C16.5442 27.04 16.434 27.2097 16.2996 27.319C16.1656 27.428 15.9789 27.5 15.7325 27.5H13.2675C13.0215 27.5 12.834 27.4282 12.6973 27.3179C12.5599 27.2069 12.4459 27.0343 12.3877 26.7868L12.3875 26.7863L11.6909 23.839L11.6268 23.5678L11.3624 23.4797C10.8592 23.312 10.3818 23.1184 9.94351 22.9122L9.69903 22.7971L9.46882 22.9386L6.89657 24.5194L6.89656 24.5194L6.89249 24.522C6.50105 24.7678 6.09057 24.7245 5.78369 24.4178C5.78368 24.4177 5.78367 24.4177 5.78366 24.4177L4.06887 22.7029C3.75177 22.3858 3.70626 21.9578 3.96461 21.5875L3.97313 21.5753L3.98092 21.5626L5.54837 19.0037L5.68742 18.7767L5.57674 18.5346C5.36636 18.0745 5.17559 17.6149 5.0375 17.1629L4.95386 16.8892L4.67543 16.8227L1.70127 16.1127L1.7013 16.1125L1.69058 16.1102C1.44783 16.0579 1.28275 15.9488 1.17707 15.8164C1.07098 15.6836 1 15.4962 1 15.2459V12.821C1 12.5795 1.06975 12.3957 1.17596 12.2636C1.28193 12.1319 1.44768 12.0225 1.69058 11.9701L1.69061 11.9703L1.70228 11.9675L4.64964 11.2574L4.92388 11.1913L5.00914 10.9224C5.15998 10.4467 5.34252 10.0128 5.50748 9.62057C5.52395 9.58141 5.54024 9.54268 5.55631 9.50436L5.6545 9.2702L5.52337 9.05278L3.95591 6.45373L3.94937 6.44288L3.94228 6.43238C3.80404 6.22739 3.75935 6.03225 3.77452 5.86439C3.78956 5.69798 3.86661 5.52146 4.03719 5.35548L4.03721 5.3555L4.0407 5.35204L5.77776 3.62835C5.95766 3.45949 6.13401 3.38267 6.29708 3.3636C6.45996 3.34454 6.64958 3.37848 6.86365 3.49842L9.45419 5.10082L9.6979 5.25156L9.95116 5.11749C10.3739 4.89369 10.8551 4.70276 11.3624 4.53367L11.6271 4.44544L11.691 4.17385L12.3877 1.2131C12.3877 1.21309 12.3877 1.21309 12.3877 1.21309C12.4459 0.965612 12.5599 0.793052 12.6973 0.682139C12.8339 0.571846 13.0215 0.5 13.2675 0.5H15.7325C15.9789 0.5 16.1656 0.572034 16.2997 0.681033C16.434 0.790264 16.5442 0.959978 16.5969 1.20398L16.5968 1.20399L16.5987 1.21211L17.2954 4.19967L17.36 4.47676L17.6312 4.56274C18.1585 4.72992 18.625 4.91998 19.0213 5.13055L19.2746 5.26508L19.5186 5.11445L22.1361 3.49855C22.3483 3.37966 22.5333 3.34839 22.6927 3.36819C22.8534 3.38817 23.0293 3.46532 23.2122 3.63165L24.9606 5.35339L24.9628 5.35549C25.1309 5.51912 25.206 5.69401 25.2202 5.86162C25.2347 6.03229 25.1887 6.23109 25.0533 6.43913L25.0491 6.44556L25.0451 6.45211L23.4642 9.05115L23.3271 9.27648L23.4357 9.51683C23.6211 9.92728 23.8257 10.4016 23.9908 10.9224L24.076 11.1913L24.3503 11.2574L27.2977 11.9675L27.2977 11.9676L27.3094 11.9701C27.5523 12.0225 27.718 12.1319 27.824 12.2636C27.9302 12.3957 28 12.5796 28 12.821V15.2459C28 15.4962 27.929 15.6836 27.8229 15.8164C27.7172 15.9488 27.5521 16.0579 27.3094 16.1102L27.3094 16.1101L27.2987 16.1127L24.3245 16.8227L24.0461 16.8892L23.9625 17.163C23.8247 17.6139 23.6347 18.0715 23.4148 18.5241L23.2947 18.7714L23.4392 19.0053L25.0201 21.5642L25.0253 21.5727L25.0309 21.581C25.2871 21.9607 25.2422 22.3912 24.9319 22.7021C24.9317 22.7024 24.9314 22.7027 24.9311 22.7029L23.2043 24.4164L23.203 24.4177C22.8954 24.7252 22.4982 24.7673 22.1075 24.522L22.1076 24.5219L22.1025 24.5188L19.5167 22.938L19.2836 22.7955L19.0378 22.9147C18.6193 23.1176 18.131 23.3108 17.6242 23.4797L17.3598 23.5678L17.2957 23.839L16.599 26.7863ZM9.27081 13.9866C9.27081 16.8599 11.623 19.2292 14.5 19.2292C17.377 19.2292 19.7292 16.8599 19.7292 13.9866C19.7292 11.1239 17.3742 8.77081 14.5 8.77081C11.6257 8.77081 9.27081 11.1239 9.27081 13.9866Z" fill="white" stroke="white"/>
</svg>
