<svg width="8" height="28" viewBox="0 0 8 28" fill="none" xmlns="http://www.w3.org/2000/svg">
<path d="M5.3938 3.5C5.3938 4.32843 4.72223 5 3.8938 5C3.06537 5 2.3938 4.32843 2.3938 3.5C2.3938 2.67157 3.06537 2 3.8938 2C4.72223 2 5.3938 2.67157 5.3938 3.5Z" fill="white"/>
<path d="M5.3938 14C5.3938 14.8284 4.72223 15.5 3.8938 15.5C3.06537 15.5 2.3938 14.8284 2.3938 14C2.3938 13.1716 3.06537 12.5 3.8938 12.5C4.72223 12.5 5.3938 13.1716 5.3938 14Z" fill="white"/>
<path d="M5.3938 24.5C5.3938 25.3284 4.72223 26 3.8938 26C3.06537 26 2.3938 25.3284 2.3938 24.5C2.3938 23.6716 3.06537 23 3.8938 23C4.72223 23 5.3938 23.6716 5.3938 24.5Z" fill="white"/>
<path d="M5.3938 3.5C5.3938 4.32843 4.72223 5 3.8938 5C3.06537 5 2.3938 4.32843 2.3938 3.5C2.3938 2.67157 3.06537 2 3.8938 2C4.72223 2 5.3938 2.67157 5.3938 3.5Z" stroke="white" stroke-width="4" stroke-linecap="round" stroke-linejoin="round"/>
<path d="M5.3938 14C5.3938 14.8284 4.72223 15.5 3.8938 15.5C3.06537 15.5 2.3938 14.8284 2.3938 14C2.3938 13.1716 3.06537 12.5 3.8938 12.5C4.72223 12.5 5.3938 13.1716 5.3938 14Z" stroke="white" stroke-width="4" stroke-linecap="round" stroke-linejoin="round"/>
<path d="M5.3938 24.5C5.3938 25.3284 4.72223 26 3.8938 26C3.06537 26 2.3938 25.3284 2.3938 24.5C2.3938 23.6716 3.06537 23 3.8938 23C4.72223 23 5.3938 23.6716 5.3938 24.5Z" stroke="white" stroke-width="4" stroke-linecap="round" stroke-linejoin="round"/>
</svg>
