<svg width="29" height="28" viewBox="0 0 29 28" fill="none" xmlns="http://www.w3.org/2000/svg">
<path d="M12.4161 6.38395L8.22591 10.5741L6.47061 8.75615L13.459 1.76777C14.0448 1.18198 14.9945 1.18198 15.5803 1.76777L22.5687 8.75615L20.8134 10.5741L16.6232 6.38395L15.7697 5.53039V6.7375V20.5H13.2697V6.7375V5.53039L12.4161 6.38395ZM25.5197 24.5V19.75H28.0197V24.5C28.0197 25.3288 27.7304 26.0259 27.138 26.6183C26.5456 27.2107 25.8485 27.5 25.0197 27.5H4.01965C3.19082 27.5 2.49373 27.2107 1.90133 26.6183C1.30894 26.0259 1.01965 25.3288 1.01965 24.5V19.75H3.51965V24.5V25H4.01965H25.0197H25.5197V24.5Z" fill="white" stroke="white"/>
</svg>
