<svg width="32" height="30" viewBox="0 0 32 30" fill="none" xmlns="http://www.w3.org/2000/svg">
<path fill-rule="evenodd" clip-rule="evenodd" d="M25 4.31799C24.6866 4.31799 24.3859 4.44252 24.1643 4.66419L5.80597 23.0225L5.24878 25.2512L7.47754 24.694L25.8358 6.33576C25.9456 6.226 26.0326 6.0957 26.092 5.9523C26.1514 5.80889 26.182 5.65519 26.182 5.49997C26.182 5.34475 26.1514 5.19105 26.092 5.04765C26.0326 4.90424 25.9456 4.77394 25.8358 4.66419C25.7261 4.55443 25.5958 4.46737 25.4524 4.40797C25.309 4.34857 25.1553 4.31799 25 4.31799ZM21.3358 1.83576C22.3076 0.86395 23.6257 0.317993 25 0.317993C25.6805 0.317993 26.3544 0.452029 26.9831 0.712448C27.6118 0.972867 28.1831 1.35457 28.6643 1.83576C29.1454 2.31695 29.5271 2.88821 29.7876 3.51692C30.048 4.14562 30.182 4.81946 30.182 5.49997C30.182 6.18048 30.048 6.85433 29.7876 7.48303C29.5271 8.11174 29.1454 8.68299 28.6643 9.16419L9.91426 27.9142C9.65794 28.1705 9.33678 28.3523 8.98511 28.4403L2.98511 29.9403C2.30356 30.1106 1.58259 29.9109 1.08583 29.4142C0.589068 28.9174 0.38937 28.1965 0.559757 27.5149L2.05976 21.5149C2.14767 21.1632 2.32951 20.8421 2.58583 20.5858L21.3358 1.83576ZM14 28C14 26.8954 14.8955 26 16 26H29.5C30.6046 26 31.5 26.8954 31.5 28C31.5 29.1045 30.6046 30 29.5 30H16C14.8955 30 14 29.1045 14 28Z" fill="white"/>
</svg>
