<svg width="48" height="48" viewBox="0 0 48 48" fill="none" xmlns="http://www.w3.org/2000/svg">
<path d="M29.6264 25.1803L29.0216 24.384L29.0077 24.3945L28.9942 24.4055L29.6264 25.1803ZM29.6264 23.1734L28.9748 23.9319L29.019 23.9699L29.0674 24.0026L29.6264 23.1734ZM22.7322 17.2507L23.3838 16.4922L23.356 16.4683L23.3265 16.4465L22.7322 17.2507ZM21.2868 18.1353L22.2868 18.1328L22.2868 18.1253L22.2867 18.1178L21.2868 18.1353ZM21.3157 29.7695L20.3157 29.772L20.3158 29.7962L20.317 29.8205L21.3157 29.7695ZM22.8141 30.739L23.3565 31.5791L23.4032 31.549L23.4463 31.5138L22.8141 30.739ZM24 37C20.8065 37 17.3412 36.9993 14.4296 36.7474C12.9738 36.6215 11.6929 36.4355 10.6738 36.1679C9.62176 35.8915 8.99431 35.5641 8.69687 35.2556L7.25718 36.6439C7.94827 37.3606 9.02244 37.8019 10.1657 38.1022C11.3419 38.4112 12.7499 38.6096 14.2572 38.74C17.2719 39.0007 20.8295 39 24 39V37ZM5 24C5 27.2725 4.99802 29.824 5.25543 31.8095C5.51609 33.8201 6.05846 35.4008 7.25718 36.6439L8.69687 35.2556C7.91857 34.4485 7.47242 33.3541 7.23883 31.5523C7.00198 29.7254 7 27.3271 7 24H5ZM41 24C41 27.3271 40.998 29.7254 40.7612 31.5523C40.5276 33.3541 40.0814 34.4485 39.3031 35.2556L40.7428 36.6439C41.9415 35.4008 42.4839 33.8201 42.7446 31.8095C43.002 29.824 43 27.2725 43 24H41ZM24 39C27.1705 39 30.7281 39.0007 33.7428 38.74C35.2501 38.6096 36.6581 38.4112 37.8343 38.1022C38.9776 37.8019 40.0517 37.3606 40.7428 36.6439L39.3031 35.2556C39.0057 35.5641 38.3782 35.8915 37.3262 36.1679C36.3071 36.4355 35.0262 36.6215 33.5704 36.7474C30.6588 36.9993 27.1935 37 24 37V39ZM24 11C27.1935 11 30.6588 11.0007 33.5704 11.2526C35.0262 11.3785 36.3071 11.5645 37.3262 11.8321C38.3782 12.1085 39.0057 12.4359 39.3031 12.7444L40.7428 11.3561C40.0517 10.6394 38.9776 10.1981 37.8343 9.89776C36.6581 9.5888 35.2501 9.39037 33.7428 9.26C30.7281 8.99927 27.1705 9 24 9V11ZM43 24C43 20.7275 43.002 18.176 42.7446 16.1905C42.4839 14.1799 41.9415 12.5992 40.7428 11.3561L39.3031 12.7444C40.0814 13.5515 40.5276 14.6459 40.7612 16.4477C40.998 18.2746 41 20.6729 41 24H43ZM24 9C20.8295 9 17.2719 8.99927 14.2572 9.26C12.7499 9.39037 11.3419 9.5888 10.1657 9.89776C9.02244 10.1981 7.94827 10.6394 7.25718 11.3561L8.69687 12.7444C8.99431 12.4359 9.62176 12.1085 10.6738 11.8321C11.6929 11.5645 12.9738 11.3785 14.4296 11.2526C17.3412 11.0007 20.8065 11 24 11V9ZM7 24C7 20.6729 7.00198 18.2746 7.23883 16.4477C7.47242 14.6459 7.91857 13.5515 8.69687 12.7444L7.25718 11.3561C6.05846 12.5992 5.51609 14.1799 5.25543 16.1905C4.99802 18.176 5 20.7275 5 24H7ZM30.2313 25.9767C30.7833 25.5574 31.2874 24.9438 31.2865 24.1467C31.2855 23.3307 30.7591 22.731 30.1855 22.3443L29.0674 24.0026C29.2112 24.0995 29.2715 24.1714 29.2913 24.2009C29.3061 24.2229 29.2865 24.2017 29.2865 24.149C29.2864 24.099 29.3042 24.0898 29.2776 24.1317C29.2476 24.179 29.1749 24.2676 29.0216 24.384L30.2313 25.9767ZM30.2781 22.4149L23.3838 16.4922L22.0805 18.0092L28.9748 23.9319L30.2781 22.4149ZM23.3265 16.4465C22.7835 16.0452 21.9917 15.8029 21.2559 16.2037C20.5222 16.6034 20.274 17.4092 20.287 18.1528L22.2867 18.1178C22.2838 17.9517 22.3116 17.8783 22.3167 17.8669C22.3186 17.8627 22.3137 17.875 22.2959 17.8951C22.2775 17.9158 22.2498 17.9398 22.2127 17.96C22.1755 17.9803 22.1378 17.9919 22.1045 17.9969C22.0719 18.0018 22.0496 17.9996 22.0408 17.9981C22.0253 17.9956 22.0608 17.998 22.1378 18.0549L23.3265 16.4465ZM20.2868 18.1378L20.3157 29.772L22.3157 29.767L22.2868 18.1328L20.2868 18.1378ZM20.317 29.8205C20.3511 30.4885 20.537 31.3219 21.238 31.7587C22.0054 32.2369 22.8287 31.9199 23.3565 31.5791L22.2717 29.8989C22.2043 29.9424 22.1521 29.9691 22.1152 29.9848C22.0781 30.0006 22.0629 30.0025 22.0678 30.0017C22.0736 30.0007 22.1028 29.9969 22.1485 30.0047C22.1962 30.0129 22.2478 30.0314 22.2956 30.0612C22.3934 30.1221 22.4042 30.1828 22.383 30.1301C22.3729 30.1048 22.3582 30.0597 22.3447 29.9892C22.3313 29.919 22.3201 29.8296 22.3144 29.7185L20.317 29.8205ZM23.4463 31.5138L30.2586 25.9551L28.9942 24.4055L22.1819 29.9642L23.4463 31.5138Z" fill="white"/>
</svg>
