<svg width="80" height="64" viewBox="0 0 80 64" fill="none" xmlns="http://www.w3.org/2000/svg">
<path d="M24.5989 21.32V25H12.0549V3.24H15.8949V21.32H24.5989ZM32.1136 25H28.2736V3.24H32.1136V25ZM53.3494 3.24L46.4374 25H42.5014L35.5574 3.24H39.7814L43.0774 14.184L44.5814 19.816L46.1814 14.152L49.4454 3.24H53.3494ZM69.4129 21.32V25H56.8049V3.24H69.0929V6.92H60.6449V12.136H68.1329V15.816H60.6449V21.32H69.4129Z" fill="#49D633"/>
<path d="M54.7273 32H29.2727C20.8473 32 14 39.1733 14 48C14 56.8267 20.8473 64 29.2727 64H54.7273C63.1527 64 70 56.8267 70 48C70 39.1733 63.1527 32 54.7273 32ZM54.7273 58.6667H29.2727C23.6473 58.6667 19.0909 53.8933 19.0909 48C19.0909 42.1067 23.6473 37.3333 29.2727 37.3333H54.7273C60.3527 37.3333 64.9091 42.1067 64.9091 48C64.9091 53.8933 60.3527 58.6667 54.7273 58.6667ZM54.7273 40C50.5018 40 47.0909 43.5733 47.0909 48C47.0909 52.4267 50.5018 56 54.7273 56C58.9527 56 62.3636 52.4267 62.3636 48C62.3636 43.5733 58.9527 40 54.7273 40Z" fill="#49D633"/>
</svg>
