<svg width="58" height="59" viewBox="0 0 58 59" fill="none" xmlns="http://www.w3.org/2000/svg">
<path d="M12.5989 18.32V22H0.0549316V0.23999H3.89493V18.32H12.5989Z" fill="white"/>
<path d="M20.1137 22H16.2737V0.23999H20.1137V22Z" fill="white"/>
<path d="M41.3494 0.23999L34.4374 22H30.5014L23.5574 0.23999H27.7814L31.0774 11.184L32.5814 16.816L34.1814 11.152L37.4454 0.23999H41.3494Z" fill="white"/>
<path d="M57.4129 18.32V22H44.8049V0.23999H57.0929V3.91999H48.6449V9.13599H56.1329V12.816H48.6449V18.32H57.4129Z" fill="white"/>
<path d="M39.3334 29H16.0001C8.27672 29 2.00006 35.607 2.00006 43.7368C2.00006 51.8667 8.27672 58.4737 16.0001 58.4737H39.3334C47.0567 58.4737 53.3334 51.8667 53.3334 43.7368C53.3334 35.607 47.0567 29 39.3334 29ZM39.3334 53.5614H16.0001C10.8434 53.5614 6.66672 49.1649 6.66672 43.7368C6.66672 38.3088 10.8434 33.9123 16.0001 33.9123H39.3334C44.4901 33.9123 48.6667 38.3088 48.6667 43.7368C48.6667 49.1649 44.4901 53.5614 39.3334 53.5614ZM16.0001 36.3684C12.1267 36.3684 9.00006 39.6596 9.00006 43.7368C9.00006 47.814 12.1267 51.1053 16.0001 51.1053C19.8734 51.1053 23.0001 47.814 23.0001 43.7368C23.0001 39.6596 19.8734 36.3684 16.0001 36.3684Z" fill="white"/>
</svg>
