<svg width="87" height="48" viewBox="0 0 87 48" fill="none" xmlns="http://www.w3.org/2000/svg">
<mask id="path-1-inside-1_11_4090" fill="white">
<path d="M79.4718 12.6726L81.0587 5.15162V5.10553L84.5463 5.14235L85.3979 5.3007L85.9413 5.52732L86.3611 5.85736L86.6263 6.26296L86.7631 6.60229L86.7985 7.4332L86.6773 7.90634L86.4692 8.33311L86.0584 8.77753L85.6397 9.06126L85.3381 9.21393L84.6022 9.45608L85.0364 9.73775L85.3105 10.0428L85.5053 10.3751L85.6266 10.712L86.0387 12.6349L86.0827 12.8422H83.6647L83.6188 12.768L83.3546 11.1644L83.272 10.8251L83.1017 10.4858L82.8873 10.2824L82.607 10.1653H82.3029V10.2036L81.7758 12.6726L81.7359 12.8422H79.4293L79.4718 12.6726ZM83.8526 8.38053L84.1989 8.07565L84.3373 7.7711V7.35636L84.1834 7.01703L84.0229 6.846L83.6466 6.73425H83.1468L83.0258 6.82851L82.6648 8.43596L82.7742 8.50516L83.4631 8.50629L83.8526 8.38053Z"/>
<path d="M73.368 12.748L74.9772 5.13185L79.775 5.11244L79.7297 5.35807L79.5879 6.07444L79.3924 6.92277H76.9128L76.8728 7.09243L76.6851 8.02654V8.09158H78.985V8.12426L78.7943 9.12843L78.621 9.8825L76.3098 9.90243L76.1946 10.2988L76.0818 10.8883V11.0315L78.7064 11.0513L78.3297 12.8422H73.3672L73.368 12.748Z"/>
<path d="M67.9337 12.7103L68.5086 9.9202L69.1057 7.09243L69.1458 6.92277H66.9953L66.9953 6.82851L67.3494 5.1507H74.0081V5.26235L73.7074 6.7154L73.6674 6.88506H71.4901L71.4551 6.97932L70.2189 12.842H67.8951L67.9337 12.7103Z"/>
<path d="M51.0655 12.7715L55.2883 5.15239L58.1919 5.15072L59.0638 12.8422H56.7133L56.6238 11.6923L56.5831 11.4849H54.231L53.5556 12.8422H51.0404L51.0655 12.7715ZM56.4748 9.43005L56.327 7.0251L56.2983 6.99643L55.4073 8.9022L55.0834 9.59972H56.476L56.4748 9.43005Z"/>
<path d="M40.7564 12.748L42.3576 5.16955L45.6105 5.14991L45.6561 5.77281L45.8114 8.29895L45.906 10.448L45.9689 10.2972L46.659 8.63828L48.1968 5.1507H51.7253L51.7222 5.28266L50.1175 12.8234L47.8419 12.8433L47.8426 12.8234L49.0088 7.32279L48.9732 7.28723L48.9327 7.32776L46.4217 12.8234L44.2603 12.8434V12.6349L43.9592 7.65799L43.9537 7.35636L43.8871 7.50717L43.6164 8.97761L43.019 11.73L42.7896 12.8072V12.8422H40.7536L40.7564 12.748Z"/>
<path d="M23.2042 12.748L24.8053 5.16955L28.0583 5.14991L28.1038 5.77281L28.2591 8.29895L28.3537 10.448L28.4167 10.2972L29.1068 8.63828L30.6445 5.1507H34.1731L34.1699 5.28266L32.5652 12.8234L30.2896 12.8433L30.2904 12.8234L31.4565 7.32279L31.421 7.28723L31.3804 7.32776L28.8695 12.8234L26.708 12.8434V12.6349L26.4069 7.65799L26.4014 7.35636L26.3349 7.50717L26.0642 8.97761L25.4667 11.73L25.2374 12.8072V12.8422H23.2014L23.2042 12.748Z"/>
<path d="M61.3209 12.8781L60.6422 12.6972L60.0109 12.4551L60.0607 12.0316L60.3213 10.8251L60.401 10.5413L60.7347 10.7709L61.434 11.1078L62.0658 11.2665L62.9044 11.2395L63.1684 11.0864L63.3002 10.8251V10.5399L63.1931 10.2834L62.8327 10.0219L61.7733 9.46776L61.3667 9.13764L61.1324 8.87435L60.9622 8.60058L60.8062 8.18667L60.7448 7.63936L60.8133 7.01703L60.9343 6.63999L61.2075 6.11214L61.6673 5.65119L62.1881 5.34243L62.6829 5.15668L63.2553 5.03845L63.9979 4.9908L64.9781 5.07978L65.6859 5.23245L66.2601 5.42281L66.3168 5.47512L65.9772 7.16784L65.9449 7.25452L64.9609 6.84376L64.4503 6.73556L63.8093 6.73466L63.5289 6.81254L63.3017 7.00372L63.2152 7.29251L63.2656 7.5615L63.4555 7.78709L64.7427 8.56286L65.2373 8.9776L65.5968 9.50517L65.769 10.0333L65.7622 10.8251L65.6358 11.348L65.3929 11.8424L64.9302 12.3332L64.4654 12.6081L63.6577 12.8764L62.9888 12.993L61.9241 12.9862L61.3209 12.8781Z"/>
<path d="M36.7759 12.9505L36.2035 12.8101L35.5962 12.5759L35.1361 12.2785L34.7876 11.9572L34.457 11.494L34.2645 11.0586L34.1012 10.4103L34.099 8.8268L34.3023 8.02658L34.5965 7.34418L35.0389 6.6777L35.6825 6.02974L36.1349 5.72643L36.7382 5.4253L37.3414 5.22689L38.0578 5.07803L38.9627 4.99235L39.8299 5.04164L40.5839 5.15746L41.0252 5.25892L41.0574 5.29108L40.6184 7.26922L40.4977 7.33679L40.1607 7.18773L39.4905 7.022L38.5102 7.02079L37.9096 7.19094L37.4545 7.4291L36.9556 7.93007L36.6497 8.54127L36.5215 9.11763L36.5583 9.92023L36.7218 10.3461L37.0259 10.6915L37.5677 10.9575L38.0201 11.0412L38.6988 10.997L39.3021 10.8433L39.9011 10.6199L39.912 10.6366L39.4827 12.6083L39.4405 12.7182L38.8043 12.8778L38.0955 12.9928L37.0021 12.9818L36.7759 12.9505Z"/>
<path d="M28.841 20.4018L32.8558 13.1627H35.755L36.6016 20.628L36.6063 20.8354H34.3108L34.2695 20.7685L34.1931 19.8362L34.1485 19.478H31.7956L31.126 20.8354H28.6087L28.841 20.4018ZM34.0334 17.574L33.9142 14.9913H33.8699L32.6585 17.574L32.6895 17.6306H34.0002L34.0334 17.574Z"/>
<path d="M43.0177 20.4395L47.0364 13.2004L49.9497 13.1807L49.9908 13.4266L50.7838 20.5526L50.8271 20.8354H48.4925L48.4479 20.5526L48.3669 19.5417L48.3276 19.478H45.9915L45.3207 20.8731H42.7852L43.0177 20.4395ZM48.216 17.1216L48.1143 15.0249L48.07 14.9807L47.9251 15.3118L46.8616 17.5691V17.5929H48.2189L48.216 17.1216Z"/>
<path d="M23.1237 13.1439L26.332 13.1446L27.3876 13.2207L27.9709 13.3781L28.4057 13.6388L28.6931 13.9169L28.9713 14.4785V15.3496L28.6992 15.9193L28.3202 16.2922L27.8478 16.5714L27.1805 16.7823V16.8654L27.6572 16.9944L28.0288 17.2078L28.3219 17.4987L28.5351 17.9511L28.6218 18.5157L28.5743 18.9799L28.4262 19.4103L28.2672 19.6675L28.0155 19.9689L27.6241 20.3029L27.124 20.5644L26.483 20.7592L25.8797 20.8446L21.4948 20.8798L23.1237 13.1439ZM25.9144 19.0445L26.1372 18.6835V18.2464L25.955 17.9134L25.5779 17.7264L24.5098 17.7248L24.47 17.7644L24.1264 19.3034V19.3359L25.4003 19.3067L25.9144 19.0445ZM25.9166 16.1181L26.0666 16.0764L26.3811 15.86L26.5394 15.5331V15.2736L26.4655 15.0159L26.2597 14.801L25.8847 14.6897H25.1067V14.7191L24.805 16.1215V16.1601L25.7665 16.1594L25.9166 16.1181Z"/>
<path d="M37.5677 20.8497L37.2849 20.7541L37.2841 20.7034L37.7093 18.7051L37.7368 18.6742L38.3217 18.9464L38.6822 19.0352L39.2643 19.0002L39.6494 18.8036L39.8824 18.6076L40.1865 18.1521L40.4116 17.4495L40.6757 16.179L41.2466 13.4643L41.322 13.1816H43.6119L43.5739 13.502L43.3557 14.4516L42.832 16.9809L42.5166 18.215L42.3277 18.7428L42.1006 19.1953L41.7945 19.6477L41.4134 20.053L40.9854 20.3831L40.4246 20.6855L39.8675 20.8755L39.2355 20.9862L38.2086 20.9796L37.5677 20.8497Z"/>
<path d="M42.6401 28.6589L44.2223 21.1596V21.137H46.5306L46.4828 21.3821L44.9145 28.8097L42.5994 28.8296L42.6401 28.6589Z"/>
<path d="M26.767 28.8002L26.7684 28.772L30.977 21.1936L33.8899 21.1738L33.9264 21.3444L34.7587 28.7438V28.8285H32.4211V28.7343L32.3071 27.5278L32.2729 27.4335H29.9704L29.2741 28.8285H26.7658L26.767 28.8002ZM32.1555 25.1147L32.0441 23.215V22.9694L31.9782 23.041L30.7999 25.5804V25.6237H32.1995L32.1555 25.1147Z"/>
<path d="M52.1636 28.7814L52.1099 28.6966L50.3596 25.7557L49.5574 24.3435L49.5197 24.3418L48.5771 28.8285L46.4409 28.8285L46.4918 28.5967L48.0546 21.1935L50.0913 21.1735L52.1666 24.6245L52.6045 25.4045L52.6554 25.3032L53.5163 21.175L55.6465 21.1743V21.2134L54.0597 28.7338L54.0202 28.8658H52.2172L52.1636 28.7814Z"/>
<path d="M19.8737 28.7814L19.8904 28.6966L21.4619 21.2313L21.534 21.137L24.7108 21.1371L25.5171 21.2135L26.0304 21.3699L26.5205 21.6413L26.9092 22.0298L27.1314 22.4755L27.2242 22.8525L27.2228 23.4767L27.0985 23.9043L26.8779 24.3412L26.3964 24.8508L25.8796 25.157L25.4648 25.3196L25.1066 25.4065V25.5141L25.3517 25.6426L25.7664 26.062L25.975 26.4885L26.1594 27.1884L26.5017 28.8037V28.8285H24.0509L24.0509 28.772L23.7512 27.0376L23.6814 26.8114L23.5677 26.5475L23.4029 26.338L23.1032 26.1851L22.7313 26.1411V26.2081L22.166 28.8369V28.8662H19.8573L19.8737 28.7814ZM24.1493 24.433L24.4952 24.2303L24.7261 23.8817L24.7773 23.5408L24.6863 23.1344L24.4939 22.9058L24.1842 22.7478L23.542 22.7163L23.4613 22.7771L23.0985 24.3984L23.0649 24.4866L23.2403 24.52L23.6928 24.5287L24.1493 24.433Z"/>
<path d="M58.7184 28.9532L58.1161 28.8206L57.5348 28.598L56.9809 28.2364L56.5928 27.8483L56.373 27.5278L56.1818 27.1491L56.0201 26.6606L55.9109 25.9442L55.9101 25.0715L56.0321 24.3607L56.2568 23.7197L56.5322 23.1921L56.955 22.6263L57.4748 22.1182L57.9273 21.7792L58.6813 21.4072L59.3017 21.2142L60.0764 21.0554L60.9161 21.005L61.9238 21.0553L62.8664 21.2476L63.2435 21.3629L63.3405 21.4259L62.9133 23.3495L62.1767 23.0603L61.5091 22.8939L60.4534 22.8904L59.8659 23.0605L59.3223 23.3342L58.7882 23.8705L58.5498 24.3606L58.3963 24.9639L58.351 25.7557L58.4768 26.2458L58.6283 26.5597L58.9304 26.9029L59.4125 27.1402L59.8894 27.1785L60.3171 27.0897L60.3944 26.8491L60.5523 26.095L60.5905 25.963H59.1837L59.2342 25.6426L59.3812 24.9029L59.5364 24.2287H63.2638L63.2245 24.3983L62.4332 28.1687L62.3939 28.3377L62.037 28.5175L61.4901 28.7138L60.9058 28.8619L60.0764 28.9753L59.3223 29.0085L58.7184 28.9532Z"/>
<path d="M38.5666 28.9436L38.0955 28.8241L37.6808 28.6718L37.181 28.4093L36.688 28.0027L36.3513 27.5278L36.1559 27.1385L36.0035 26.5888L35.9187 25.7557L35.9651 24.9168L36.0822 24.2993L36.311 23.6443L36.6119 23.0787L37.029 22.532L37.6054 21.9917L38.2351 21.5797L38.8706 21.3206L39.5834 21.1398L40.4331 21.0147L41.9413 21.056L42.8815 21.254L42.9165 21.289L42.4774 23.305L42.4512 23.3528L41.8282 23.1402L41.2469 23.0222H40.3886L39.8062 23.1711L39.3397 23.4158L38.8053 23.9459L38.5299 24.5115L38.4001 25.0016L38.4035 25.9065L38.5709 26.3364L38.8987 26.7011L39.27 26.9032L39.7138 27.0188H40.3682L40.9881 26.9012L41.7389 26.6342L41.7652 26.6606L41.3472 28.6212L41.2724 28.7152L40.7768 28.8683L40.1169 28.975L39.1135 29.0123L38.5666 28.9436Z"/>
<path d="M17.1497 46.334L17.1191 46.3034L17.3002 41.3272L17.302 40.6414L16.1144 40.0912L14.4861 39.2693L13.7902 38.8193L9.30669 42.3264H9.26983L6.37597 39.7206L9.3915 34.892L9.19003 34.616L8.47808 33.6205L7.84836 32.6177L7.44257 31.8464L7.25405 31.8496L1.78704 32.624L1.76137 32.6047L0.5622 28.9261L0.627914 28.8603L5.51969 26.26L5.58485 26.1958L5.46301 25.1525L5.38433 23.9459L5.39737 22.5891L0.138463 20.4624L0.117554 20.4395L0.925777 16.6314L1.63622 16.6511L6.23605 16.8061L6.64141 16.7822L7.01078 15.9151L7.60781 14.7085L8.26021 13.5935L8.22174 13.502L4.78033 9.10313L4.80332 9.04281L7.39272 6.16503L7.48027 6.23458L12.2168 9.18648L12.3063 9.13195L13.1358 8.51605L14.1915 7.82155L15.266 7.21637L15.2629 7.09243L14.4841 1.58772L14.5082 1.56009L18.1806 0.358643L18.2504 0.428476L20.868 5.35807L21.242 5.34302L22.3354 5.22224L24.1075 5.18339L24.214 5.257L23.3623 9.27924L23.3034 9.39408L21.8661 9.525L20.7724 9.71027L19.6962 9.98015L18.6931 10.3144L17.7817 10.6978L16.8961 11.1417L16.2275 11.5337L15.2849 12.1739L14.38 12.8966L13.1309 14.143L12.327 15.1526L11.6909 16.1036L11.06 17.2386L10.5437 18.4412L10.1448 19.6477L9.91107 20.6019L9.72937 21.6837L9.65123 22.5132L9.60248 23.5689L9.68855 24.8885L9.84042 25.9442L10.0628 26.9622L10.3671 27.9701L10.7546 28.99L11.3501 30.2047L11.9124 31.1473L12.5702 32.0655L13.2465 32.8817L14.2669 33.904L14.9455 34.4696L15.5488 34.9236L16.2275 35.3767L16.9521 35.8018L17.9995 36.3235L18.9124 36.7045L19.8093 37.0146L20.7164 37.271L21.8453 37.498L22.8256 37.6284L25.0501 37.631L26.1435 37.4962L27.2915 37.2717L28.3303 36.9776L29.009 36.7384L29.8384 36.3923L30.7617 35.9194L31.6482 35.3824L32.5072 34.7668L33.458 33.978L34.4032 33.0325L34.9705 32.3538L35.4247 31.7505L35.969 30.9368L36.1538 30.5894V30.4875H33.2911L32.6546 31.7883L32.1851 32.5046L31.8027 32.9948L31.0072 33.8132L30.4794 34.245L29.8761 34.6633L29.1975 35.0436L28.1787 35.4947L27.3877 35.77L26.5468 35.9944L25.955 36.1086L24.937 36.2176L24.1452 36.2184L23.278 36.1403L22.5632 36.0217L21.6813 35.8064L20.7142 35.4559L19.8093 35.0262L18.9044 34.477L18.1263 33.9101L17.4497 33.2662L16.9749 32.6933L16.5554 32.0901L16.1054 31.2801L15.7583 30.4688L15.4715 29.7154L15.3443 29.6909L14.6816 29.9544L14.0784 30.0863L13.0227 30.0887L12.4948 29.9246L12.0143 29.6394L11.535 29.1651L11.2397 28.6591L11.1253 28.282L11.08 27.9615H11.1851L11.3873 28.2266L11.7784 28.4503L12.1647 28.5369L12.55 28.4445L12.8527 28.2252L13.0814 27.9095L13.5986 26.3214L13.7639 25.9067L14.1649 25.3034L14.6062 24.8851L15.1341 24.5142L15.1895 24.4363L15.1906 24.3856L14.9455 24.3087L14.4177 24.2586L13.8898 24.1519L13.3997 23.9926L12.8139 23.7029L12.3441 23.3839L11.6927 22.756L11.224 22.0986L10.9407 21.5331L10.8179 21.1561L10.7387 20.7413L10.7398 19.9495L10.8921 19.3544L10.9797 19.2488L11.0395 19.3087L11.1939 19.9705L11.3751 20.3266L11.5532 20.4926L11.9079 20.6495L12.5566 20.7288L13.1991 20.6433L13.6726 20.4715L14.0029 20.2752L14.6816 19.6952L15.1718 19.3747L15.7252 19.0969L16.4914 18.841L17.4717 18.6322L18.7159 18.6225L18.8007 18.6168L18.8855 18.6109V18.5109L18.7159 18.3578L17.7733 17.9037L17.17 17.4545L16.4537 16.7041L15.9635 16.0089L15.6793 15.5409L15.5953 15.2364L15.5486 14.8217L15.6019 14.1991L15.7283 13.6905L15.9176 13.1765L16.1968 13.8414L16.4069 14.254L16.8684 14.7151L17.3209 14.8855L17.8864 14.9227L19.2437 14.7629L20.1042 14.6819L20.9131 14.7666L21.4923 14.9183L21.9668 15.1083L22.1545 15.3118L21.3694 19.0067L21.242 19.1338L20.3239 19.5917L19.4323 20.181L18.6709 20.7937L18.0983 21.4023L17.6401 22.0104L17.2186 22.7267L16.8965 23.4181L16.6253 24.1447L16.4303 24.8885L16.2805 25.8688L16.2366 27.3392L16.3232 28.5154L16.4282 29.1126L16.5515 29.6014L16.7742 30.2801L17.2528 31.2604L17.7852 32.0522L18.3851 32.7685L18.9565 33.3108L19.5454 33.7801L20.3067 34.2832L21.1289 34.7016L21.9961 35.0455L22.6748 35.2417L23.3534 35.3934L24.1075 35.5039L25.3517 35.5502L26.3634 35.4604L27.0107 35.3494L27.6103 35.196L28.3303 34.9299L29.1598 34.5247L30.0075 34.0128L30.7056 33.5232L31.6929 32.5423L32.2384 31.7128L32.8048 30.557L32.7793 30.5354L32.6146 30.4498H32.0949L31.9441 30.6194L31.5095 31.2757L31.0313 31.8361L30.4794 32.3824L29.8121 32.9006L29.1221 33.3285L28.3397 33.6984L27.35 34.0281L26.4074 34.2199L25.3329 34.3086L24.2583 34.2199L23.327 34.0295L22.4108 33.7243L21.3971 33.2379L20.6765 32.7549L20.1428 32.2784L19.6898 31.7755L19.2203 31.09L18.7779 30.167L18.5541 29.4883L18.3602 28.6211L18.2723 27.8719L18.3143 26.6229L18.4378 25.9442L18.6191 25.2278L18.8401 24.5869L19.035 24.1543L19.3875 23.5689L19.8595 22.9602L20.5907 22.2681H20.6576L20.6544 22.3624L19.1986 29.1867L19.2233 29.2335L36.7657 29.2625L62.3761 29.5129L62.3667 30.6577L40.8421 30.511L40.6279 31.1473L39.967 32.4673L39.3571 33.4831L39.3954 33.5829L42.8273 37.9859V38.0246L40.2994 40.8371L40.2001 40.9045L35.4913 37.9566L35.3735 37.9114L34.6268 38.4708L33.6088 39.147L32.7039 39.6751L32.3457 39.8788V39.9699L33.1004 45.3992L33.1272 45.5184L29.4615 46.7022L29.3792 46.7L26.7557 41.742L26.7092 41.6898L25.9174 41.7929L24.8099 41.8739H23.0874L20.9476 47.1524L20.9028 47.1437L17.1497 46.334ZM26.9266 32.8255L27.5385 32.6795L28.2172 32.4393L28.8582 32.1157L29.4237 31.7207L30.0698 31.0655L30.469 30.4686L27.6239 30.4489L26.8932 30.7838L26.2566 30.9566L25.0878 30.9511L24.3337 30.7476L23.7305 30.4691L20.9162 30.448L21.0535 30.681L21.5516 31.3003L22.1846 31.8895L22.7879 32.2891L23.3375 32.5636L23.9944 32.7824L24.6123 32.9065L25.2763 32.9693L26.1435 32.9325L26.9266 32.8255Z"/>
</mask>
<path d="M79.4718 12.6726L81.0587 5.15162V5.10553L84.5463 5.14235L85.3979 5.3007L85.9413 5.52732L86.3611 5.85736L86.6263 6.26296L86.7631 6.60229L86.7985 7.4332L86.6773 7.90634L86.4692 8.33311L86.0584 8.77753L85.6397 9.06126L85.3381 9.21393L84.6022 9.45608L85.0364 9.73775L85.3105 10.0428L85.5053 10.3751L85.6266 10.712L86.0387 12.6349L86.0827 12.8422H83.6647L83.6188 12.768L83.3546 11.1644L83.272 10.8251L83.1017 10.4858L82.8873 10.2824L82.607 10.1653H82.3029V10.2036L81.7758 12.6726L81.7359 12.8422H79.4293L79.4718 12.6726ZM83.8526 8.38053L84.1989 8.07565L84.3373 7.7711V7.35636L84.1834 7.01703L84.0229 6.846L83.6466 6.73425H83.1468L83.0258 6.82851L82.6648 8.43596L82.7742 8.50516L83.4631 8.50629L83.8526 8.38053Z" fill="white"/>
<path d="M73.368 12.748L74.9772 5.13185L79.775 5.11244L79.7297 5.35807L79.5879 6.07444L79.3924 6.92277H76.9128L76.8728 7.09243L76.6851 8.02654V8.09158H78.985V8.12426L78.7943 9.12843L78.621 9.8825L76.3098 9.90243L76.1946 10.2988L76.0818 10.8883V11.0315L78.7064 11.0513L78.3297 12.8422H73.3672L73.368 12.748Z" fill="white"/>
<path d="M67.9337 12.7103L68.5086 9.9202L69.1057 7.09243L69.1458 6.92277H66.9953L66.9953 6.82851L67.3494 5.1507H74.0081V5.26235L73.7074 6.7154L73.6674 6.88506H71.4901L71.4551 6.97932L70.2189 12.842H67.8951L67.9337 12.7103Z" fill="white"/>
<path d="M51.0655 12.7715L55.2883 5.15239L58.1919 5.15072L59.0638 12.8422H56.7133L56.6238 11.6923L56.5831 11.4849H54.231L53.5556 12.8422H51.0404L51.0655 12.7715ZM56.4748 9.43005L56.327 7.0251L56.2983 6.99643L55.4073 8.9022L55.0834 9.59972H56.476L56.4748 9.43005Z" fill="white"/>
<path d="M40.7564 12.748L42.3576 5.16955L45.6105 5.14991L45.6561 5.77281L45.8114 8.29895L45.906 10.448L45.9689 10.2972L46.659 8.63828L48.1968 5.1507H51.7253L51.7222 5.28266L50.1175 12.8234L47.8419 12.8433L47.8426 12.8234L49.0088 7.32279L48.9732 7.28723L48.9327 7.32776L46.4217 12.8234L44.2603 12.8434V12.6349L43.9592 7.65799L43.9537 7.35636L43.8871 7.50717L43.6164 8.97761L43.019 11.73L42.7896 12.8072V12.8422H40.7536L40.7564 12.748Z" fill="white"/>
<path d="M23.2042 12.748L24.8053 5.16955L28.0583 5.14991L28.1038 5.77281L28.2591 8.29895L28.3537 10.448L28.4167 10.2972L29.1068 8.63828L30.6445 5.1507H34.1731L34.1699 5.28266L32.5652 12.8234L30.2896 12.8433L30.2904 12.8234L31.4565 7.32279L31.421 7.28723L31.3804 7.32776L28.8695 12.8234L26.708 12.8434V12.6349L26.4069 7.65799L26.4014 7.35636L26.3349 7.50717L26.0642 8.97761L25.4667 11.73L25.2374 12.8072V12.8422H23.2014L23.2042 12.748Z" fill="white"/>
<path d="M61.3209 12.8781L60.6422 12.6972L60.0109 12.4551L60.0607 12.0316L60.3213 10.8251L60.401 10.5413L60.7347 10.7709L61.434 11.1078L62.0658 11.2665L62.9044 11.2395L63.1684 11.0864L63.3002 10.8251V10.5399L63.1931 10.2834L62.8327 10.0219L61.7733 9.46776L61.3667 9.13764L61.1324 8.87435L60.9622 8.60058L60.8062 8.18667L60.7448 7.63936L60.8133 7.01703L60.9343 6.63999L61.2075 6.11214L61.6673 5.65119L62.1881 5.34243L62.6829 5.15668L63.2553 5.03845L63.9979 4.9908L64.9781 5.07978L65.6859 5.23245L66.2601 5.42281L66.3168 5.47512L65.9772 7.16784L65.9449 7.25452L64.9609 6.84376L64.4503 6.73556L63.8093 6.73466L63.5289 6.81254L63.3017 7.00372L63.2152 7.29251L63.2656 7.5615L63.4555 7.78709L64.7427 8.56286L65.2373 8.9776L65.5968 9.50517L65.769 10.0333L65.7622 10.8251L65.6358 11.348L65.3929 11.8424L64.9302 12.3332L64.4654 12.6081L63.6577 12.8764L62.9888 12.993L61.9241 12.9862L61.3209 12.8781Z" fill="white"/>
<path d="M36.7759 12.9505L36.2035 12.8101L35.5962 12.5759L35.1361 12.2785L34.7876 11.9572L34.457 11.494L34.2645 11.0586L34.1012 10.4103L34.099 8.8268L34.3023 8.02658L34.5965 7.34418L35.0389 6.6777L35.6825 6.02974L36.1349 5.72643L36.7382 5.4253L37.3414 5.22689L38.0578 5.07803L38.9627 4.99235L39.8299 5.04164L40.5839 5.15746L41.0252 5.25892L41.0574 5.29108L40.6184 7.26922L40.4977 7.33679L40.1607 7.18773L39.4905 7.022L38.5102 7.02079L37.9096 7.19094L37.4545 7.4291L36.9556 7.93007L36.6497 8.54127L36.5215 9.11763L36.5583 9.92023L36.7218 10.3461L37.0259 10.6915L37.5677 10.9575L38.0201 11.0412L38.6988 10.997L39.3021 10.8433L39.9011 10.6199L39.912 10.6366L39.4827 12.6083L39.4405 12.7182L38.8043 12.8778L38.0955 12.9928L37.0021 12.9818L36.7759 12.9505Z" fill="white"/>
<path d="M28.841 20.4018L32.8558 13.1627H35.755L36.6016 20.628L36.6063 20.8354H34.3108L34.2695 20.7685L34.1931 19.8362L34.1485 19.478H31.7956L31.126 20.8354H28.6087L28.841 20.4018ZM34.0334 17.574L33.9142 14.9913H33.8699L32.6585 17.574L32.6895 17.6306H34.0002L34.0334 17.574Z" fill="white"/>
<path d="M43.0177 20.4395L47.0364 13.2004L49.9497 13.1807L49.9908 13.4266L50.7838 20.5526L50.8271 20.8354H48.4925L48.4479 20.5526L48.3669 19.5417L48.3276 19.478H45.9915L45.3207 20.8731H42.7852L43.0177 20.4395ZM48.216 17.1216L48.1143 15.0249L48.07 14.9807L47.9251 15.3118L46.8616 17.5691V17.5929H48.2189L48.216 17.1216Z" fill="white"/>
<path d="M23.1237 13.1439L26.332 13.1446L27.3876 13.2207L27.9709 13.3781L28.4057 13.6388L28.6931 13.9169L28.9713 14.4785V15.3496L28.6992 15.9193L28.3202 16.2922L27.8478 16.5714L27.1805 16.7823V16.8654L27.6572 16.9944L28.0288 17.2078L28.3219 17.4987L28.5351 17.9511L28.6218 18.5157L28.5743 18.9799L28.4262 19.4103L28.2672 19.6675L28.0155 19.9689L27.6241 20.3029L27.124 20.5644L26.483 20.7592L25.8797 20.8446L21.4948 20.8798L23.1237 13.1439ZM25.9144 19.0445L26.1372 18.6835V18.2464L25.955 17.9134L25.5779 17.7264L24.5098 17.7248L24.47 17.7644L24.1264 19.3034V19.3359L25.4003 19.3067L25.9144 19.0445ZM25.9166 16.1181L26.0666 16.0764L26.3811 15.86L26.5394 15.5331V15.2736L26.4655 15.0159L26.2597 14.801L25.8847 14.6897H25.1067V14.7191L24.805 16.1215V16.1601L25.7665 16.1594L25.9166 16.1181Z" fill="white"/>
<path d="M37.5677 20.8497L37.2849 20.7541L37.2841 20.7034L37.7093 18.7051L37.7368 18.6742L38.3217 18.9464L38.6822 19.0352L39.2643 19.0002L39.6494 18.8036L39.8824 18.6076L40.1865 18.1521L40.4116 17.4495L40.6757 16.179L41.2466 13.4643L41.322 13.1816H43.6119L43.5739 13.502L43.3557 14.4516L42.832 16.9809L42.5166 18.215L42.3277 18.7428L42.1006 19.1953L41.7945 19.6477L41.4134 20.053L40.9854 20.3831L40.4246 20.6855L39.8675 20.8755L39.2355 20.9862L38.2086 20.9796L37.5677 20.8497Z" fill="white"/>
<path d="M42.6401 28.6589L44.2223 21.1596V21.137H46.5306L46.4828 21.3821L44.9145 28.8097L42.5994 28.8296L42.6401 28.6589Z" fill="white"/>
<path d="M26.767 28.8002L26.7684 28.772L30.977 21.1936L33.8899 21.1738L33.9264 21.3444L34.7587 28.7438V28.8285H32.4211V28.7343L32.3071 27.5278L32.2729 27.4335H29.9704L29.2741 28.8285H26.7658L26.767 28.8002ZM32.1555 25.1147L32.0441 23.215V22.9694L31.9782 23.041L30.7999 25.5804V25.6237H32.1995L32.1555 25.1147Z" fill="white"/>
<path d="M52.1636 28.7814L52.1099 28.6966L50.3596 25.7557L49.5574 24.3435L49.5197 24.3418L48.5771 28.8285L46.4409 28.8285L46.4918 28.5967L48.0546 21.1935L50.0913 21.1735L52.1666 24.6245L52.6045 25.4045L52.6554 25.3032L53.5163 21.175L55.6465 21.1743V21.2134L54.0597 28.7338L54.0202 28.8658H52.2172L52.1636 28.7814Z" fill="white"/>
<path d="M19.8737 28.7814L19.8904 28.6966L21.4619 21.2313L21.534 21.137L24.7108 21.1371L25.5171 21.2135L26.0304 21.3699L26.5205 21.6413L26.9092 22.0298L27.1314 22.4755L27.2242 22.8525L27.2228 23.4767L27.0985 23.9043L26.8779 24.3412L26.3964 24.8508L25.8796 25.157L25.4648 25.3196L25.1066 25.4065V25.5141L25.3517 25.6426L25.7664 26.062L25.975 26.4885L26.1594 27.1884L26.5017 28.8037V28.8285H24.0509L24.0509 28.772L23.7512 27.0376L23.6814 26.8114L23.5677 26.5475L23.4029 26.338L23.1032 26.1851L22.7313 26.1411V26.2081L22.166 28.8369V28.8662H19.8573L19.8737 28.7814ZM24.1493 24.433L24.4952 24.2303L24.7261 23.8817L24.7773 23.5408L24.6863 23.1344L24.4939 22.9058L24.1842 22.7478L23.542 22.7163L23.4613 22.7771L23.0985 24.3984L23.0649 24.4866L23.2403 24.52L23.6928 24.5287L24.1493 24.433Z" fill="white"/>
<path d="M58.7184 28.9532L58.1161 28.8206L57.5348 28.598L56.9809 28.2364L56.5928 27.8483L56.373 27.5278L56.1818 27.1491L56.0201 26.6606L55.9109 25.9442L55.9101 25.0715L56.0321 24.3607L56.2568 23.7197L56.5322 23.1921L56.955 22.6263L57.4748 22.1182L57.9273 21.7792L58.6813 21.4072L59.3017 21.2142L60.0764 21.0554L60.9161 21.005L61.9238 21.0553L62.8664 21.2476L63.2435 21.3629L63.3405 21.4259L62.9133 23.3495L62.1767 23.0603L61.5091 22.8939L60.4534 22.8904L59.8659 23.0605L59.3223 23.3342L58.7882 23.8705L58.5498 24.3606L58.3963 24.9639L58.351 25.7557L58.4768 26.2458L58.6283 26.5597L58.9304 26.9029L59.4125 27.1402L59.8894 27.1785L60.3171 27.0897L60.3944 26.8491L60.5523 26.095L60.5905 25.963H59.1837L59.2342 25.6426L59.3812 24.9029L59.5364 24.2287H63.2638L63.2245 24.3983L62.4332 28.1687L62.3939 28.3377L62.037 28.5175L61.4901 28.7138L60.9058 28.8619L60.0764 28.9753L59.3223 29.0085L58.7184 28.9532Z" fill="white"/>
<path d="M38.5666 28.9436L38.0955 28.8241L37.6808 28.6718L37.181 28.4093L36.688 28.0027L36.3513 27.5278L36.1559 27.1385L36.0035 26.5888L35.9187 25.7557L35.9651 24.9168L36.0822 24.2993L36.311 23.6443L36.6119 23.0787L37.029 22.532L37.6054 21.9917L38.2351 21.5797L38.8706 21.3206L39.5834 21.1398L40.4331 21.0147L41.9413 21.056L42.8815 21.254L42.9165 21.289L42.4774 23.305L42.4512 23.3528L41.8282 23.1402L41.2469 23.0222H40.3886L39.8062 23.1711L39.3397 23.4158L38.8053 23.9459L38.5299 24.5115L38.4001 25.0016L38.4035 25.9065L38.5709 26.3364L38.8987 26.7011L39.27 26.9032L39.7138 27.0188H40.3682L40.9881 26.9012L41.7389 26.6342L41.7652 26.6606L41.3472 28.6212L41.2724 28.7152L40.7768 28.8683L40.1169 28.975L39.1135 29.0123L38.5666 28.9436Z" fill="white"/>
<path d="M17.1497 46.334L17.1191 46.3034L17.3002 41.3272L17.302 40.6414L16.1144 40.0912L14.4861 39.2693L13.7902 38.8193L9.30669 42.3264H9.26983L6.37597 39.7206L9.3915 34.892L9.19003 34.616L8.47808 33.6205L7.84836 32.6177L7.44257 31.8464L7.25405 31.8496L1.78704 32.624L1.76137 32.6047L0.5622 28.9261L0.627914 28.8603L5.51969 26.26L5.58485 26.1958L5.46301 25.1525L5.38433 23.9459L5.39737 22.5891L0.138463 20.4624L0.117554 20.4395L0.925777 16.6314L1.63622 16.6511L6.23605 16.8061L6.64141 16.7822L7.01078 15.9151L7.60781 14.7085L8.26021 13.5935L8.22174 13.502L4.78033 9.10313L4.80332 9.04281L7.39272 6.16503L7.48027 6.23458L12.2168 9.18648L12.3063 9.13195L13.1358 8.51605L14.1915 7.82155L15.266 7.21637L15.2629 7.09243L14.4841 1.58772L14.5082 1.56009L18.1806 0.358643L18.2504 0.428476L20.868 5.35807L21.242 5.34302L22.3354 5.22224L24.1075 5.18339L24.214 5.257L23.3623 9.27924L23.3034 9.39408L21.8661 9.525L20.7724 9.71027L19.6962 9.98015L18.6931 10.3144L17.7817 10.6978L16.8961 11.1417L16.2275 11.5337L15.2849 12.1739L14.38 12.8966L13.1309 14.143L12.327 15.1526L11.6909 16.1036L11.06 17.2386L10.5437 18.4412L10.1448 19.6477L9.91107 20.6019L9.72937 21.6837L9.65123 22.5132L9.60248 23.5689L9.68855 24.8885L9.84042 25.9442L10.0628 26.9622L10.3671 27.9701L10.7546 28.99L11.3501 30.2047L11.9124 31.1473L12.5702 32.0655L13.2465 32.8817L14.2669 33.904L14.9455 34.4696L15.5488 34.9236L16.2275 35.3767L16.9521 35.8018L17.9995 36.3235L18.9124 36.7045L19.8093 37.0146L20.7164 37.271L21.8453 37.498L22.8256 37.6284L25.0501 37.631L26.1435 37.4962L27.2915 37.2717L28.3303 36.9776L29.009 36.7384L29.8384 36.3923L30.7617 35.9194L31.6482 35.3824L32.5072 34.7668L33.458 33.978L34.4032 33.0325L34.9705 32.3538L35.4247 31.7505L35.969 30.9368L36.1538 30.5894V30.4875H33.2911L32.6546 31.7883L32.1851 32.5046L31.8027 32.9948L31.0072 33.8132L30.4794 34.245L29.8761 34.6633L29.1975 35.0436L28.1787 35.4947L27.3877 35.77L26.5468 35.9944L25.955 36.1086L24.937 36.2176L24.1452 36.2184L23.278 36.1403L22.5632 36.0217L21.6813 35.8064L20.7142 35.4559L19.8093 35.0262L18.9044 34.477L18.1263 33.9101L17.4497 33.2662L16.9749 32.6933L16.5554 32.0901L16.1054 31.2801L15.7583 30.4688L15.4715 29.7154L15.3443 29.6909L14.6816 29.9544L14.0784 30.0863L13.0227 30.0887L12.4948 29.9246L12.0143 29.6394L11.535 29.1651L11.2397 28.6591L11.1253 28.282L11.08 27.9615H11.1851L11.3873 28.2266L11.7784 28.4503L12.1647 28.5369L12.55 28.4445L12.8527 28.2252L13.0814 27.9095L13.5986 26.3214L13.7639 25.9067L14.1649 25.3034L14.6062 24.8851L15.1341 24.5142L15.1895 24.4363L15.1906 24.3856L14.9455 24.3087L14.4177 24.2586L13.8898 24.1519L13.3997 23.9926L12.8139 23.7029L12.3441 23.3839L11.6927 22.756L11.224 22.0986L10.9407 21.5331L10.8179 21.1561L10.7387 20.7413L10.7398 19.9495L10.8921 19.3544L10.9797 19.2488L11.0395 19.3087L11.1939 19.9705L11.3751 20.3266L11.5532 20.4926L11.9079 20.6495L12.5566 20.7288L13.1991 20.6433L13.6726 20.4715L14.0029 20.2752L14.6816 19.6952L15.1718 19.3747L15.7252 19.0969L16.4914 18.841L17.4717 18.6322L18.7159 18.6225L18.8007 18.6168L18.8855 18.6109V18.5109L18.7159 18.3578L17.7733 17.9037L17.17 17.4545L16.4537 16.7041L15.9635 16.0089L15.6793 15.5409L15.5953 15.2364L15.5486 14.8217L15.6019 14.1991L15.7283 13.6905L15.9176 13.1765L16.1968 13.8414L16.4069 14.254L16.8684 14.7151L17.3209 14.8855L17.8864 14.9227L19.2437 14.7629L20.1042 14.6819L20.9131 14.7666L21.4923 14.9183L21.9668 15.1083L22.1545 15.3118L21.3694 19.0067L21.242 19.1338L20.3239 19.5917L19.4323 20.181L18.6709 20.7937L18.0983 21.4023L17.6401 22.0104L17.2186 22.7267L16.8965 23.4181L16.6253 24.1447L16.4303 24.8885L16.2805 25.8688L16.2366 27.3392L16.3232 28.5154L16.4282 29.1126L16.5515 29.6014L16.7742 30.2801L17.2528 31.2604L17.7852 32.0522L18.3851 32.7685L18.9565 33.3108L19.5454 33.7801L20.3067 34.2832L21.1289 34.7016L21.9961 35.0455L22.6748 35.2417L23.3534 35.3934L24.1075 35.5039L25.3517 35.5502L26.3634 35.4604L27.0107 35.3494L27.6103 35.196L28.3303 34.9299L29.1598 34.5247L30.0075 34.0128L30.7056 33.5232L31.6929 32.5423L32.2384 31.7128L32.8048 30.557L32.7793 30.5354L32.6146 30.4498H32.0949L31.9441 30.6194L31.5095 31.2757L31.0313 31.8361L30.4794 32.3824L29.8121 32.9006L29.1221 33.3285L28.3397 33.6984L27.35 34.0281L26.4074 34.2199L25.3329 34.3086L24.2583 34.2199L23.327 34.0295L22.4108 33.7243L21.3971 33.2379L20.6765 32.7549L20.1428 32.2784L19.6898 31.7755L19.2203 31.09L18.7779 30.167L18.5541 29.4883L18.3602 28.6211L18.2723 27.8719L18.3143 26.6229L18.4378 25.9442L18.6191 25.2278L18.8401 24.5869L19.035 24.1543L19.3875 23.5689L19.8595 22.9602L20.5907 22.2681H20.6576L20.6544 22.3624L19.1986 29.1867L19.2233 29.2335L36.7657 29.2625L62.3761 29.5129L62.3667 30.6577L40.8421 30.511L40.6279 31.1473L39.967 32.4673L39.3571 33.4831L39.3954 33.5829L42.8273 37.9859V38.0246L40.2994 40.8371L40.2001 40.9045L35.4913 37.9566L35.3735 37.9114L34.6268 38.4708L33.6088 39.147L32.7039 39.6751L32.3457 39.8788V39.9699L33.1004 45.3992L33.1272 45.5184L29.4615 46.7022L29.3792 46.7L26.7557 41.742L26.7092 41.6898L25.9174 41.7929L24.8099 41.8739H23.0874L20.9476 47.1524L20.9028 47.1437L17.1497 46.334ZM26.9266 32.8255L27.5385 32.6795L28.2172 32.4393L28.8582 32.1157L29.4237 31.7207L30.0698 31.0655L30.469 30.4686L27.6239 30.4489L26.8932 30.7838L26.2566 30.9566L25.0878 30.9511L24.3337 30.7476L23.7305 30.4691L20.9162 30.448L21.0535 30.681L21.5516 31.3003L22.1846 31.8895L22.7879 32.2891L23.3375 32.5636L23.9944 32.7824L24.6123 32.9065L25.2763 32.9693L26.1435 32.9325L26.9266 32.8255Z" fill="white"/>
<path d="M79.4718 12.6726L81.0587 5.15162V5.10553L84.5463 5.14235L85.3979 5.3007L85.9413 5.52732L86.3611 5.85736L86.6263 6.26296L86.7631 6.60229L86.7985 7.4332L86.6773 7.90634L86.4692 8.33311L86.0584 8.77753L85.6397 9.06126L85.3381 9.21393L84.6022 9.45608L85.0364 9.73775L85.3105 10.0428L85.5053 10.3751L85.6266 10.712L86.0387 12.6349L86.0827 12.8422H83.6647L83.6188 12.768L83.3546 11.1644L83.272 10.8251L83.1017 10.4858L82.8873 10.2824L82.607 10.1653H82.3029V10.2036L81.7758 12.6726L81.7359 12.8422H79.4293L79.4718 12.6726ZM83.8526 8.38053L84.1989 8.07565L84.3373 7.7711V7.35636L84.1834 7.01703L84.0229 6.846L83.6466 6.73425H83.1468L83.0258 6.82851L82.6648 8.43596L82.7742 8.50516L83.4631 8.50629L83.8526 8.38053Z" stroke="white" stroke-width="2" mask="url(#path-1-inside-1_11_4090)"/>
<path d="M73.368 12.748L74.9772 5.13185L79.775 5.11244L79.7297 5.35807L79.5879 6.07444L79.3924 6.92277H76.9128L76.8728 7.09243L76.6851 8.02654V8.09158H78.985V8.12426L78.7943 9.12843L78.621 9.8825L76.3098 9.90243L76.1946 10.2988L76.0818 10.8883V11.0315L78.7064 11.0513L78.3297 12.8422H73.3672L73.368 12.748Z" stroke="white" stroke-width="2" mask="url(#path-1-inside-1_11_4090)"/>
<path d="M67.9337 12.7103L68.5086 9.9202L69.1057 7.09243L69.1458 6.92277H66.9953L66.9953 6.82851L67.3494 5.1507H74.0081V5.26235L73.7074 6.7154L73.6674 6.88506H71.4901L71.4551 6.97932L70.2189 12.842H67.8951L67.9337 12.7103Z" stroke="white" stroke-width="2" mask="url(#path-1-inside-1_11_4090)"/>
<path d="M51.0655 12.7715L55.2883 5.15239L58.1919 5.15072L59.0638 12.8422H56.7133L56.6238 11.6923L56.5831 11.4849H54.231L53.5556 12.8422H51.0404L51.0655 12.7715ZM56.4748 9.43005L56.327 7.0251L56.2983 6.99643L55.4073 8.9022L55.0834 9.59972H56.476L56.4748 9.43005Z" stroke="white" stroke-width="2" mask="url(#path-1-inside-1_11_4090)"/>
<path d="M40.7564 12.748L42.3576 5.16955L45.6105 5.14991L45.6561 5.77281L45.8114 8.29895L45.906 10.448L45.9689 10.2972L46.659 8.63828L48.1968 5.1507H51.7253L51.7222 5.28266L50.1175 12.8234L47.8419 12.8433L47.8426 12.8234L49.0088 7.32279L48.9732 7.28723L48.9327 7.32776L46.4217 12.8234L44.2603 12.8434V12.6349L43.9592 7.65799L43.9537 7.35636L43.8871 7.50717L43.6164 8.97761L43.019 11.73L42.7896 12.8072V12.8422H40.7536L40.7564 12.748Z" stroke="white" stroke-width="2" mask="url(#path-1-inside-1_11_4090)"/>
<path d="M23.2042 12.748L24.8053 5.16955L28.0583 5.14991L28.1038 5.77281L28.2591 8.29895L28.3537 10.448L28.4167 10.2972L29.1068 8.63828L30.6445 5.1507H34.1731L34.1699 5.28266L32.5652 12.8234L30.2896 12.8433L30.2904 12.8234L31.4565 7.32279L31.421 7.28723L31.3804 7.32776L28.8695 12.8234L26.708 12.8434V12.6349L26.4069 7.65799L26.4014 7.35636L26.3349 7.50717L26.0642 8.97761L25.4667 11.73L25.2374 12.8072V12.8422H23.2014L23.2042 12.748Z" stroke="white" stroke-width="2" mask="url(#path-1-inside-1_11_4090)"/>
<path d="M61.3209 12.8781L60.6422 12.6972L60.0109 12.4551L60.0607 12.0316L60.3213 10.8251L60.401 10.5413L60.7347 10.7709L61.434 11.1078L62.0658 11.2665L62.9044 11.2395L63.1684 11.0864L63.3002 10.8251V10.5399L63.1931 10.2834L62.8327 10.0219L61.7733 9.46776L61.3667 9.13764L61.1324 8.87435L60.9622 8.60058L60.8062 8.18667L60.7448 7.63936L60.8133 7.01703L60.9343 6.63999L61.2075 6.11214L61.6673 5.65119L62.1881 5.34243L62.6829 5.15668L63.2553 5.03845L63.9979 4.9908L64.9781 5.07978L65.6859 5.23245L66.2601 5.42281L66.3168 5.47512L65.9772 7.16784L65.9449 7.25452L64.9609 6.84376L64.4503 6.73556L63.8093 6.73466L63.5289 6.81254L63.3017 7.00372L63.2152 7.29251L63.2656 7.5615L63.4555 7.78709L64.7427 8.56286L65.2373 8.9776L65.5968 9.50517L65.769 10.0333L65.7622 10.8251L65.6358 11.348L65.3929 11.8424L64.9302 12.3332L64.4654 12.6081L63.6577 12.8764L62.9888 12.993L61.9241 12.9862L61.3209 12.8781Z" stroke="white" stroke-width="2" mask="url(#path-1-inside-1_11_4090)"/>
<path d="M36.7759 12.9505L36.2035 12.8101L35.5962 12.5759L35.1361 12.2785L34.7876 11.9572L34.457 11.494L34.2645 11.0586L34.1012 10.4103L34.099 8.8268L34.3023 8.02658L34.5965 7.34418L35.0389 6.6777L35.6825 6.02974L36.1349 5.72643L36.7382 5.4253L37.3414 5.22689L38.0578 5.07803L38.9627 4.99235L39.8299 5.04164L40.5839 5.15746L41.0252 5.25892L41.0574 5.29108L40.6184 7.26922L40.4977 7.33679L40.1607 7.18773L39.4905 7.022L38.5102 7.02079L37.9096 7.19094L37.4545 7.4291L36.9556 7.93007L36.6497 8.54127L36.5215 9.11763L36.5583 9.92023L36.7218 10.3461L37.0259 10.6915L37.5677 10.9575L38.0201 11.0412L38.6988 10.997L39.3021 10.8433L39.9011 10.6199L39.912 10.6366L39.4827 12.6083L39.4405 12.7182L38.8043 12.8778L38.0955 12.9928L37.0021 12.9818L36.7759 12.9505Z" stroke="white" stroke-width="2" mask="url(#path-1-inside-1_11_4090)"/>
<path d="M28.841 20.4018L32.8558 13.1627H35.755L36.6016 20.628L36.6063 20.8354H34.3108L34.2695 20.7685L34.1931 19.8362L34.1485 19.478H31.7956L31.126 20.8354H28.6087L28.841 20.4018ZM34.0334 17.574L33.9142 14.9913H33.8699L32.6585 17.574L32.6895 17.6306H34.0002L34.0334 17.574Z" stroke="white" stroke-width="2" mask="url(#path-1-inside-1_11_4090)"/>
<path d="M43.0177 20.4395L47.0364 13.2004L49.9497 13.1807L49.9908 13.4266L50.7838 20.5526L50.8271 20.8354H48.4925L48.4479 20.5526L48.3669 19.5417L48.3276 19.478H45.9915L45.3207 20.8731H42.7852L43.0177 20.4395ZM48.216 17.1216L48.1143 15.0249L48.07 14.9807L47.9251 15.3118L46.8616 17.5691V17.5929H48.2189L48.216 17.1216Z" stroke="white" stroke-width="2" mask="url(#path-1-inside-1_11_4090)"/>
<path d="M23.1237 13.1439L26.332 13.1446L27.3876 13.2207L27.9709 13.3781L28.4057 13.6388L28.6931 13.9169L28.9713 14.4785V15.3496L28.6992 15.9193L28.3202 16.2922L27.8478 16.5714L27.1805 16.7823V16.8654L27.6572 16.9944L28.0288 17.2078L28.3219 17.4987L28.5351 17.9511L28.6218 18.5157L28.5743 18.9799L28.4262 19.4103L28.2672 19.6675L28.0155 19.9689L27.6241 20.3029L27.124 20.5644L26.483 20.7592L25.8797 20.8446L21.4948 20.8798L23.1237 13.1439ZM25.9144 19.0445L26.1372 18.6835V18.2464L25.955 17.9134L25.5779 17.7264L24.5098 17.7248L24.47 17.7644L24.1264 19.3034V19.3359L25.4003 19.3067L25.9144 19.0445ZM25.9166 16.1181L26.0666 16.0764L26.3811 15.86L26.5394 15.5331V15.2736L26.4655 15.0159L26.2597 14.801L25.8847 14.6897H25.1067V14.7191L24.805 16.1215V16.1601L25.7665 16.1594L25.9166 16.1181Z" stroke="white" stroke-width="2" mask="url(#path-1-inside-1_11_4090)"/>
<path d="M37.5677 20.8497L37.2849 20.7541L37.2841 20.7034L37.7093 18.7051L37.7368 18.6742L38.3217 18.9464L38.6822 19.0352L39.2643 19.0002L39.6494 18.8036L39.8824 18.6076L40.1865 18.1521L40.4116 17.4495L40.6757 16.179L41.2466 13.4643L41.322 13.1816H43.6119L43.5739 13.502L43.3557 14.4516L42.832 16.9809L42.5166 18.215L42.3277 18.7428L42.1006 19.1953L41.7945 19.6477L41.4134 20.053L40.9854 20.3831L40.4246 20.6855L39.8675 20.8755L39.2355 20.9862L38.2086 20.9796L37.5677 20.8497Z" stroke="white" stroke-width="2" mask="url(#path-1-inside-1_11_4090)"/>
<path d="M42.6401 28.6589L44.2223 21.1596V21.137H46.5306L46.4828 21.3821L44.9145 28.8097L42.5994 28.8296L42.6401 28.6589Z" stroke="white" stroke-width="2" mask="url(#path-1-inside-1_11_4090)"/>
<path d="M26.767 28.8002L26.7684 28.772L30.977 21.1936L33.8899 21.1738L33.9264 21.3444L34.7587 28.7438V28.8285H32.4211V28.7343L32.3071 27.5278L32.2729 27.4335H29.9704L29.2741 28.8285H26.7658L26.767 28.8002ZM32.1555 25.1147L32.0441 23.215V22.9694L31.9782 23.041L30.7999 25.5804V25.6237H32.1995L32.1555 25.1147Z" stroke="white" stroke-width="2" mask="url(#path-1-inside-1_11_4090)"/>
<path d="M52.1636 28.7814L52.1099 28.6966L50.3596 25.7557L49.5574 24.3435L49.5197 24.3418L48.5771 28.8285L46.4409 28.8285L46.4918 28.5967L48.0546 21.1935L50.0913 21.1735L52.1666 24.6245L52.6045 25.4045L52.6554 25.3032L53.5163 21.175L55.6465 21.1743V21.2134L54.0597 28.7338L54.0202 28.8658H52.2172L52.1636 28.7814Z" stroke="white" stroke-width="2" mask="url(#path-1-inside-1_11_4090)"/>
<path d="M19.8737 28.7814L19.8904 28.6966L21.4619 21.2313L21.534 21.137L24.7108 21.1371L25.5171 21.2135L26.0304 21.3699L26.5205 21.6413L26.9092 22.0298L27.1314 22.4755L27.2242 22.8525L27.2228 23.4767L27.0985 23.9043L26.8779 24.3412L26.3964 24.8508L25.8796 25.157L25.4648 25.3196L25.1066 25.4065V25.5141L25.3517 25.6426L25.7664 26.062L25.975 26.4885L26.1594 27.1884L26.5017 28.8037V28.8285H24.0509L24.0509 28.772L23.7512 27.0376L23.6814 26.8114L23.5677 26.5475L23.4029 26.338L23.1032 26.1851L22.7313 26.1411V26.2081L22.166 28.8369V28.8662H19.8573L19.8737 28.7814ZM24.1493 24.433L24.4952 24.2303L24.7261 23.8817L24.7773 23.5408L24.6863 23.1344L24.4939 22.9058L24.1842 22.7478L23.542 22.7163L23.4613 22.7771L23.0985 24.3984L23.0649 24.4866L23.2403 24.52L23.6928 24.5287L24.1493 24.433Z" stroke="white" stroke-width="2" mask="url(#path-1-inside-1_11_4090)"/>
<path d="M58.7184 28.9532L58.1161 28.8206L57.5348 28.598L56.9809 28.2364L56.5928 27.8483L56.373 27.5278L56.1818 27.1491L56.0201 26.6606L55.9109 25.9442L55.9101 25.0715L56.0321 24.3607L56.2568 23.7197L56.5322 23.1921L56.955 22.6263L57.4748 22.1182L57.9273 21.7792L58.6813 21.4072L59.3017 21.2142L60.0764 21.0554L60.9161 21.005L61.9238 21.0553L62.8664 21.2476L63.2435 21.3629L63.3405 21.4259L62.9133 23.3495L62.1767 23.0603L61.5091 22.8939L60.4534 22.8904L59.8659 23.0605L59.3223 23.3342L58.7882 23.8705L58.5498 24.3606L58.3963 24.9639L58.351 25.7557L58.4768 26.2458L58.6283 26.5597L58.9304 26.9029L59.4125 27.1402L59.8894 27.1785L60.3171 27.0897L60.3944 26.8491L60.5523 26.095L60.5905 25.963H59.1837L59.2342 25.6426L59.3812 24.9029L59.5364 24.2287H63.2638L63.2245 24.3983L62.4332 28.1687L62.3939 28.3377L62.037 28.5175L61.4901 28.7138L60.9058 28.8619L60.0764 28.9753L59.3223 29.0085L58.7184 28.9532Z" stroke="white" stroke-width="2" mask="url(#path-1-inside-1_11_4090)"/>
<path d="M38.5666 28.9436L38.0955 28.8241L37.6808 28.6718L37.181 28.4093L36.688 28.0027L36.3513 27.5278L36.1559 27.1385L36.0035 26.5888L35.9187 25.7557L35.9651 24.9168L36.0822 24.2993L36.311 23.6443L36.6119 23.0787L37.029 22.532L37.6054 21.9917L38.2351 21.5797L38.8706 21.3206L39.5834 21.1398L40.4331 21.0147L41.9413 21.056L42.8815 21.254L42.9165 21.289L42.4774 23.305L42.4512 23.3528L41.8282 23.1402L41.2469 23.0222H40.3886L39.8062 23.1711L39.3397 23.4158L38.8053 23.9459L38.5299 24.5115L38.4001 25.0016L38.4035 25.9065L38.5709 26.3364L38.8987 26.7011L39.27 26.9032L39.7138 27.0188H40.3682L40.9881 26.9012L41.7389 26.6342L41.7652 26.6606L41.3472 28.6212L41.2724 28.7152L40.7768 28.8683L40.1169 28.975L39.1135 29.0123L38.5666 28.9436Z" stroke="white" stroke-width="2" mask="url(#path-1-inside-1_11_4090)"/>
<path d="M17.1497 46.334L17.1191 46.3034L17.3002 41.3272L17.302 40.6414L16.1144 40.0912L14.4861 39.2693L13.7902 38.8193L9.30669 42.3264H9.26983L6.37597 39.7206L9.3915 34.892L9.19003 34.616L8.47808 33.6205L7.84836 32.6177L7.44257 31.8464L7.25405 31.8496L1.78704 32.624L1.76137 32.6047L0.5622 28.9261L0.627914 28.8603L5.51969 26.26L5.58485 26.1958L5.46301 25.1525L5.38433 23.9459L5.39737 22.5891L0.138463 20.4624L0.117554 20.4395L0.925777 16.6314L1.63622 16.6511L6.23605 16.8061L6.64141 16.7822L7.01078 15.9151L7.60781 14.7085L8.26021 13.5935L8.22174 13.502L4.78033 9.10313L4.80332 9.04281L7.39272 6.16503L7.48027 6.23458L12.2168 9.18648L12.3063 9.13195L13.1358 8.51605L14.1915 7.82155L15.266 7.21637L15.2629 7.09243L14.4841 1.58772L14.5082 1.56009L18.1806 0.358643L18.2504 0.428476L20.868 5.35807L21.242 5.34302L22.3354 5.22224L24.1075 5.18339L24.214 5.257L23.3623 9.27924L23.3034 9.39408L21.8661 9.525L20.7724 9.71027L19.6962 9.98015L18.6931 10.3144L17.7817 10.6978L16.8961 11.1417L16.2275 11.5337L15.2849 12.1739L14.38 12.8966L13.1309 14.143L12.327 15.1526L11.6909 16.1036L11.06 17.2386L10.5437 18.4412L10.1448 19.6477L9.91107 20.6019L9.72937 21.6837L9.65123 22.5132L9.60248 23.5689L9.68855 24.8885L9.84042 25.9442L10.0628 26.9622L10.3671 27.9701L10.7546 28.99L11.3501 30.2047L11.9124 31.1473L12.5702 32.0655L13.2465 32.8817L14.2669 33.904L14.9455 34.4696L15.5488 34.9236L16.2275 35.3767L16.9521 35.8018L17.9995 36.3235L18.9124 36.7045L19.8093 37.0146L20.7164 37.271L21.8453 37.498L22.8256 37.6284L25.0501 37.631L26.1435 37.4962L27.2915 37.2717L28.3303 36.9776L29.009 36.7384L29.8384 36.3923L30.7617 35.9194L31.6482 35.3824L32.5072 34.7668L33.458 33.978L34.4032 33.0325L34.9705 32.3538L35.4247 31.7505L35.969 30.9368L36.1538 30.5894V30.4875H33.2911L32.6546 31.7883L32.1851 32.5046L31.8027 32.9948L31.0072 33.8132L30.4794 34.245L29.8761 34.6633L29.1975 35.0436L28.1787 35.4947L27.3877 35.77L26.5468 35.9944L25.955 36.1086L24.937 36.2176L24.1452 36.2184L23.278 36.1403L22.5632 36.0217L21.6813 35.8064L20.7142 35.4559L19.8093 35.0262L18.9044 34.477L18.1263 33.9101L17.4497 33.2662L16.9749 32.6933L16.5554 32.0901L16.1054 31.2801L15.7583 30.4688L15.4715 29.7154L15.3443 29.6909L14.6816 29.9544L14.0784 30.0863L13.0227 30.0887L12.4948 29.9246L12.0143 29.6394L11.535 29.1651L11.2397 28.6591L11.1253 28.282L11.08 27.9615H11.1851L11.3873 28.2266L11.7784 28.4503L12.1647 28.5369L12.55 28.4445L12.8527 28.2252L13.0814 27.9095L13.5986 26.3214L13.7639 25.9067L14.1649 25.3034L14.6062 24.8851L15.1341 24.5142L15.1895 24.4363L15.1906 24.3856L14.9455 24.3087L14.4177 24.2586L13.8898 24.1519L13.3997 23.9926L12.8139 23.7029L12.3441 23.3839L11.6927 22.756L11.224 22.0986L10.9407 21.5331L10.8179 21.1561L10.7387 20.7413L10.7398 19.9495L10.8921 19.3544L10.9797 19.2488L11.0395 19.3087L11.1939 19.9705L11.3751 20.3266L11.5532 20.4926L11.9079 20.6495L12.5566 20.7288L13.1991 20.6433L13.6726 20.4715L14.0029 20.2752L14.6816 19.6952L15.1718 19.3747L15.7252 19.0969L16.4914 18.841L17.4717 18.6322L18.7159 18.6225L18.8007 18.6168L18.8855 18.6109V18.5109L18.7159 18.3578L17.7733 17.9037L17.17 17.4545L16.4537 16.7041L15.9635 16.0089L15.6793 15.5409L15.5953 15.2364L15.5486 14.8217L15.6019 14.1991L15.7283 13.6905L15.9176 13.1765L16.1968 13.8414L16.4069 14.254L16.8684 14.7151L17.3209 14.8855L17.8864 14.9227L19.2437 14.7629L20.1042 14.6819L20.9131 14.7666L21.4923 14.9183L21.9668 15.1083L22.1545 15.3118L21.3694 19.0067L21.242 19.1338L20.3239 19.5917L19.4323 20.181L18.6709 20.7937L18.0983 21.4023L17.6401 22.0104L17.2186 22.7267L16.8965 23.4181L16.6253 24.1447L16.4303 24.8885L16.2805 25.8688L16.2366 27.3392L16.3232 28.5154L16.4282 29.1126L16.5515 29.6014L16.7742 30.2801L17.2528 31.2604L17.7852 32.0522L18.3851 32.7685L18.9565 33.3108L19.5454 33.7801L20.3067 34.2832L21.1289 34.7016L21.9961 35.0455L22.6748 35.2417L23.3534 35.3934L24.1075 35.5039L25.3517 35.5502L26.3634 35.4604L27.0107 35.3494L27.6103 35.196L28.3303 34.9299L29.1598 34.5247L30.0075 34.0128L30.7056 33.5232L31.6929 32.5423L32.2384 31.7128L32.8048 30.557L32.7793 30.5354L32.6146 30.4498H32.0949L31.9441 30.6194L31.5095 31.2757L31.0313 31.8361L30.4794 32.3824L29.8121 32.9006L29.1221 33.3285L28.3397 33.6984L27.35 34.0281L26.4074 34.2199L25.3329 34.3086L24.2583 34.2199L23.327 34.0295L22.4108 33.7243L21.3971 33.2379L20.6765 32.7549L20.1428 32.2784L19.6898 31.7755L19.2203 31.09L18.7779 30.167L18.5541 29.4883L18.3602 28.6211L18.2723 27.8719L18.3143 26.6229L18.4378 25.9442L18.6191 25.2278L18.8401 24.5869L19.035 24.1543L19.3875 23.5689L19.8595 22.9602L20.5907 22.2681H20.6576L20.6544 22.3624L19.1986 29.1867L19.2233 29.2335L36.7657 29.2625L62.3761 29.5129L62.3667 30.6577L40.8421 30.511L40.6279 31.1473L39.967 32.4673L39.3571 33.4831L39.3954 33.5829L42.8273 37.9859V38.0246L40.2994 40.8371L40.2001 40.9045L35.4913 37.9566L35.3735 37.9114L34.6268 38.4708L33.6088 39.147L32.7039 39.6751L32.3457 39.8788V39.9699L33.1004 45.3992L33.1272 45.5184L29.4615 46.7022L29.3792 46.7L26.7557 41.742L26.7092 41.6898L25.9174 41.7929L24.8099 41.8739H23.0874L20.9476 47.1524L20.9028 47.1437L17.1497 46.334ZM26.9266 32.8255L27.5385 32.6795L28.2172 32.4393L28.8582 32.1157L29.4237 31.7207L30.0698 31.0655L30.469 30.4686L27.6239 30.4489L26.8932 30.7838L26.2566 30.9566L25.0878 30.9511L24.3337 30.7476L23.7305 30.4691L20.9162 30.448L21.0535 30.681L21.5516 31.3003L22.1846 31.8895L22.7879 32.2891L23.3375 32.5636L23.9944 32.7824L24.6123 32.9065L25.2763 32.9693L26.1435 32.9325L26.9266 32.8255Z" stroke="white" stroke-width="2" mask="url(#path-1-inside-1_11_4090)"/>
</svg>
